<mxfile host="app.diagrams.net" modified="2023-09-14T22:51:29.008Z" agent="Mozilla/5.0 (Windows NT 10.0; Win64; x64) AppleWebKit/537.36 (KHTML, like Gecko) Chrome/116.0.0.0 Safari/537.36" etag="zQHxWnMNtr274gtZ88_h" version="21.7.1" type="device" pages="6">
  <diagram name="dfd0" id="mU6w4JcRJr7jjht41q3K">
    <mxGraphModel dx="1434" dy="833" grid="1" gridSize="10" guides="1" tooltips="1" connect="1" arrows="1" fold="1" page="1" pageScale="1" pageWidth="850" pageHeight="1100" math="0" shadow="0">
      <root>
        <mxCell id="0" />
        <mxCell id="1" parent="0" />
        <mxCell id="ROYv88vkLq4Gx-IGIFpo-1" value="Application" style="ellipse;whiteSpace=wrap;html=1;aspect=fixed;" parent="1" vertex="1">
          <mxGeometry x="440" y="360" width="80" height="80" as="geometry" />
        </mxCell>
        <mxCell id="ROYv88vkLq4Gx-IGIFpo-2" value="User" style="rounded=0;whiteSpace=wrap;html=1;" parent="1" vertex="1">
          <mxGeometry x="210" y="370" width="60" height="60" as="geometry" />
        </mxCell>
        <mxCell id="ROYv88vkLq4Gx-IGIFpo-12" value="Informasi sumur, Data sumur, File sumur" style="text;html=1;strokeColor=none;fillColor=none;align=center;verticalAlign=middle;whiteSpace=wrap;rounded=0;labelBackgroundColor=none;" parent="1" vertex="1">
          <mxGeometry x="295" y="370" width="130" height="30" as="geometry" />
        </mxCell>
        <mxCell id="VGSGfISrwPFsqIUiV16K-3" value="" style="endArrow=classic;startArrow=classic;html=1;fontColor=#FF3333;rounded=0;exitX=1;exitY=0.5;exitDx=0;exitDy=0;entryX=0;entryY=0.5;entryDx=0;entryDy=0;" parent="1" source="ROYv88vkLq4Gx-IGIFpo-2" target="ROYv88vkLq4Gx-IGIFpo-1" edge="1">
          <mxGeometry width="50" height="50" relative="1" as="geometry">
            <mxPoint x="400" y="450" as="sourcePoint" />
            <mxPoint x="450" y="400" as="targetPoint" />
          </mxGeometry>
        </mxCell>
      </root>
    </mxGraphModel>
  </diagram>
  <diagram id="4yGHwuJllhdET20oUlsX" name="dfd1">
    <mxGraphModel dx="1434" dy="833" grid="1" gridSize="10" guides="1" tooltips="1" connect="1" arrows="1" fold="1" page="1" pageScale="1" pageWidth="850" pageHeight="1100" math="0" shadow="0">
      <root>
        <mxCell id="0" />
        <mxCell id="1" parent="0" />
        <mxCell id="NaWG3KmxtEaFfdu-hZVv-1" value="User" style="rounded=0;whiteSpace=wrap;html=1;" parent="1" vertex="1">
          <mxGeometry x="40" y="360" width="80" height="60" as="geometry" />
        </mxCell>
        <mxCell id="pgveja9RLhY5SWUL_zIq-1" value="" style="endArrow=classic;startArrow=classic;html=1;fontColor=#FF3333;rounded=0;exitX=1;exitY=0.5;exitDx=0;exitDy=0;entryX=0;entryY=0.5;entryDx=0;entryDy=0;" parent="1" source="NaWG3KmxtEaFfdu-hZVv-1" target="pgveja9RLhY5SWUL_zIq-5" edge="1">
          <mxGeometry width="50" height="50" relative="1" as="geometry">
            <mxPoint x="400" y="450" as="sourcePoint" />
            <mxPoint x="280" y="390" as="targetPoint" />
          </mxGeometry>
        </mxCell>
        <mxCell id="pgveja9RLhY5SWUL_zIq-2" value="Informasi sumur, Data sumur, File sumur" style="text;html=1;strokeColor=none;fillColor=none;align=center;verticalAlign=middle;whiteSpace=wrap;rounded=0;labelBackgroundColor=none;" parent="1" vertex="1">
          <mxGeometry x="140" y="360" width="130" height="30" as="geometry" />
        </mxCell>
        <mxCell id="pgveja9RLhY5SWUL_zIq-8" style="edgeStyle=orthogonalEdgeStyle;rounded=0;orthogonalLoop=1;jettySize=auto;html=1;exitX=0;exitY=0;exitDx=0;exitDy=0;entryX=0;entryY=1;entryDx=0;entryDy=0;" parent="1" source="pgveja9RLhY5SWUL_zIq-5" target="pgveja9RLhY5SWUL_zIq-6" edge="1">
          <mxGeometry relative="1" as="geometry" />
        </mxCell>
        <mxCell id="pgveja9RLhY5SWUL_zIq-17" style="edgeStyle=orthogonalEdgeStyle;rounded=0;orthogonalLoop=1;jettySize=auto;html=1;exitX=0.5;exitY=1;exitDx=0;exitDy=0;entryX=0.5;entryY=0;entryDx=0;entryDy=0;startArrow=classic;startFill=1;" parent="1" source="pgveja9RLhY5SWUL_zIq-5" target="pgveja9RLhY5SWUL_zIq-16" edge="1">
          <mxGeometry relative="1" as="geometry" />
        </mxCell>
        <mxCell id="pgveja9RLhY5SWUL_zIq-18" value="Informasi sumur, Data sumur, File sumur" style="edgeLabel;html=1;align=center;verticalAlign=middle;resizable=0;points=[];" parent="pgveja9RLhY5SWUL_zIq-17" vertex="1" connectable="0">
          <mxGeometry x="-0.325" y="5" relative="1" as="geometry">
            <mxPoint x="-5" y="6" as="offset" />
          </mxGeometry>
        </mxCell>
        <mxCell id="pgveja9RLhY5SWUL_zIq-5" value="Pengolahan data &amp;amp; view client" style="shape=ellipse;html=1;dashed=0;whiteSpace=wrap;aspect=fixed;perimeter=ellipsePerimeter;" parent="1" vertex="1">
          <mxGeometry x="280" y="345" width="90" height="90" as="geometry" />
        </mxCell>
        <mxCell id="pgveja9RLhY5SWUL_zIq-9" style="edgeStyle=orthogonalEdgeStyle;rounded=0;orthogonalLoop=1;jettySize=auto;html=1;exitX=1;exitY=1;exitDx=0;exitDy=0;entryX=1;entryY=0;entryDx=0;entryDy=0;" parent="1" source="pgveja9RLhY5SWUL_zIq-6" target="pgveja9RLhY5SWUL_zIq-5" edge="1">
          <mxGeometry relative="1" as="geometry" />
        </mxCell>
        <mxCell id="pgveja9RLhY5SWUL_zIq-23" style="edgeStyle=orthogonalEdgeStyle;rounded=0;orthogonalLoop=1;jettySize=auto;html=1;exitX=1;exitY=0;exitDx=0;exitDy=0;entryX=0.5;entryY=1;entryDx=0;entryDy=0;startArrow=classic;startFill=1;" parent="1" source="pgveja9RLhY5SWUL_zIq-6" target="pgveja9RLhY5SWUL_zIq-22" edge="1">
          <mxGeometry relative="1" as="geometry" />
        </mxCell>
        <mxCell id="pgveja9RLhY5SWUL_zIq-6" value="Pengolahan data server" style="shape=ellipse;html=1;dashed=0;whiteSpace=wrap;aspect=fixed;perimeter=ellipsePerimeter;" parent="1" vertex="1">
          <mxGeometry x="280" y="180" width="90" height="90" as="geometry" />
        </mxCell>
        <mxCell id="pgveja9RLhY5SWUL_zIq-13" value="Request data, Informasi sumur, Data sumur, File sumur" style="text;html=1;strokeColor=none;fillColor=none;align=center;verticalAlign=middle;whiteSpace=wrap;rounded=0;labelBackgroundColor=default;" parent="1" vertex="1">
          <mxGeometry x="140" y="290" width="170" height="30" as="geometry" />
        </mxCell>
        <mxCell id="pgveja9RLhY5SWUL_zIq-14" value="Informasi sumur, Data sumur, File sumur" style="text;html=1;strokeColor=none;fillColor=none;align=center;verticalAlign=middle;whiteSpace=wrap;rounded=0;labelBackgroundColor=default;" parent="1" vertex="1">
          <mxGeometry x="350" y="290" width="170" height="30" as="geometry" />
        </mxCell>
        <mxCell id="pgveja9RLhY5SWUL_zIq-16" value="Local Storage Client" style="html=1;dashed=0;whiteSpace=wrap;shape=partialRectangle;right=0;left=0;" parent="1" vertex="1">
          <mxGeometry x="275" y="490" width="100" height="30" as="geometry" />
        </mxCell>
        <mxCell id="pgveja9RLhY5SWUL_zIq-19" value="Local File Storage Server" style="html=1;dashed=0;whiteSpace=wrap;shape=partialRectangle;right=0;left=0;" parent="1" vertex="1">
          <mxGeometry x="275" y="90" width="100" height="30" as="geometry" />
        </mxCell>
        <mxCell id="pgveja9RLhY5SWUL_zIq-20" style="edgeStyle=orthogonalEdgeStyle;rounded=0;orthogonalLoop=1;jettySize=auto;html=1;exitX=0.5;exitY=1;exitDx=0;exitDy=0;entryX=0.5;entryY=0;entryDx=0;entryDy=0;startArrow=classic;startFill=1;" parent="1" source="pgveja9RLhY5SWUL_zIq-19" target="pgveja9RLhY5SWUL_zIq-6" edge="1">
          <mxGeometry relative="1" as="geometry">
            <mxPoint x="335" y="445" as="sourcePoint" />
            <mxPoint x="335" y="540" as="targetPoint" />
          </mxGeometry>
        </mxCell>
        <mxCell id="pgveja9RLhY5SWUL_zIq-21" value="File sumur" style="edgeLabel;html=1;align=center;verticalAlign=middle;resizable=0;points=[];" parent="pgveja9RLhY5SWUL_zIq-20" vertex="1" connectable="0">
          <mxGeometry x="-0.325" y="5" relative="1" as="geometry">
            <mxPoint x="-5" y="10" as="offset" />
          </mxGeometry>
        </mxCell>
        <mxCell id="pgveja9RLhY5SWUL_zIq-22" value="Database" style="html=1;dashed=0;whiteSpace=wrap;shape=partialRectangle;right=0;left=0;" parent="1" vertex="1">
          <mxGeometry x="410" y="90" width="100" height="30" as="geometry" />
        </mxCell>
        <mxCell id="pgveja9RLhY5SWUL_zIq-24" value="Informasi sumur, Data sumur" style="text;html=1;strokeColor=none;fillColor=none;align=center;verticalAlign=middle;whiteSpace=wrap;rounded=0;labelBackgroundColor=default;" parent="1" vertex="1">
          <mxGeometry x="380" y="140" width="170" height="30" as="geometry" />
        </mxCell>
        <mxCell id="pgveja9RLhY5SWUL_zIq-26" style="edgeStyle=orthogonalEdgeStyle;rounded=0;orthogonalLoop=1;jettySize=auto;html=1;exitX=1;exitY=0.5;exitDx=0;exitDy=0;entryX=0.5;entryY=1;entryDx=0;entryDy=0;startArrow=classic;startFill=1;" parent="1" source="pgveja9RLhY5SWUL_zIq-6" target="pgveja9RLhY5SWUL_zIq-27" edge="1">
          <mxGeometry relative="1" as="geometry">
            <mxPoint x="530" y="253" as="sourcePoint" />
          </mxGeometry>
        </mxCell>
        <mxCell id="pgveja9RLhY5SWUL_zIq-27" value="Cache Server" style="html=1;dashed=0;whiteSpace=wrap;shape=partialRectangle;right=0;left=0;" parent="1" vertex="1">
          <mxGeometry x="530" y="90" width="100" height="30" as="geometry" />
        </mxCell>
        <mxCell id="pgveja9RLhY5SWUL_zIq-28" value="Informasi sumur, Data sumur" style="text;html=1;strokeColor=none;fillColor=none;align=center;verticalAlign=middle;whiteSpace=wrap;rounded=0;labelBackgroundColor=default;" parent="1" vertex="1">
          <mxGeometry x="500" y="170" width="170" height="30" as="geometry" />
        </mxCell>
      </root>
    </mxGraphModel>
  </diagram>
  <diagram id="6g5xwV_sktiXvgX7DG9W" name="component">
    <mxGraphModel dx="1434" dy="833" grid="1" gridSize="10" guides="1" tooltips="1" connect="1" arrows="1" fold="1" page="1" pageScale="1" pageWidth="850" pageHeight="1100" math="0" shadow="0">
      <root>
        <mxCell id="0" />
        <mxCell id="1" parent="0" />
        <mxCell id="mw8O855BMlB_Na9pvbKZ-133" value="«subsystem»&lt;br&gt;&lt;b&gt;Server Model&lt;/b&gt;" style="html=1;dropTarget=0;whiteSpace=wrap;fillColor=none;verticalAlign=top;" parent="1" vertex="1">
          <mxGeometry x="10" y="20" width="590" height="710" as="geometry" />
        </mxCell>
        <mxCell id="mw8O855BMlB_Na9pvbKZ-134" value="" style="shape=module;jettyWidth=8;jettyHeight=4;" parent="mw8O855BMlB_Na9pvbKZ-133" vertex="1">
          <mxGeometry x="1" width="20" height="20" relative="1" as="geometry">
            <mxPoint x="-27" y="7" as="offset" />
          </mxGeometry>
        </mxCell>
        <mxCell id="mw8O855BMlB_Na9pvbKZ-109" style="rounded=0;orthogonalLoop=1;jettySize=auto;html=1;exitX=0.964;exitY=0.02;exitDx=0;exitDy=0;endArrow=classic;endFill=1;dashed=1;exitPerimeter=0;" parent="1" source="mw8O855BMlB_Na9pvbKZ-78" edge="1">
          <mxGeometry relative="1" as="geometry">
            <mxPoint x="420" y="480" as="targetPoint" />
          </mxGeometry>
        </mxCell>
        <mxCell id="mw8O855BMlB_Na9pvbKZ-110" style="edgeStyle=orthogonalEdgeStyle;rounded=0;orthogonalLoop=1;jettySize=auto;html=1;exitX=0.25;exitY=0;exitDx=0;exitDy=0;endArrow=halfCircle;endFill=0;" parent="1" source="mw8O855BMlB_Na9pvbKZ-78" edge="1">
          <mxGeometry relative="1" as="geometry">
            <mxPoint x="230" y="470" as="targetPoint" />
          </mxGeometry>
        </mxCell>
        <mxCell id="mw8O855BMlB_Na9pvbKZ-111" style="edgeStyle=orthogonalEdgeStyle;rounded=0;orthogonalLoop=1;jettySize=auto;html=1;exitX=0.5;exitY=1;exitDx=0;exitDy=0;endArrow=circle;endFill=0;" parent="1" source="mw8O855BMlB_Na9pvbKZ-78" edge="1">
          <mxGeometry relative="1" as="geometry">
            <mxPoint x="324" y="580" as="targetPoint" />
          </mxGeometry>
        </mxCell>
        <mxCell id="mw8O855BMlB_Na9pvbKZ-78" value="&lt;div style=&quot;&quot;&gt;&lt;span style=&quot;background-color: initial;&quot;&gt;«component»&lt;/span&gt;&lt;/div&gt;&lt;b&gt;Server Cache-First Store&lt;/b&gt;" style="html=1;dropTarget=0;whiteSpace=wrap;verticalAlign=top;fillColor=default;" parent="1" vertex="1">
          <mxGeometry x="220" y="505" width="207.5" height="50" as="geometry" />
        </mxCell>
        <mxCell id="mw8O855BMlB_Na9pvbKZ-79" value="" style="shape=module;jettyWidth=8;jettyHeight=4;" parent="mw8O855BMlB_Na9pvbKZ-78" vertex="1">
          <mxGeometry x="1" width="20" height="20" relative="1" as="geometry">
            <mxPoint x="-27" y="7" as="offset" />
          </mxGeometry>
        </mxCell>
        <mxCell id="mw8O855BMlB_Na9pvbKZ-52" value="Storer CRUD" style="text;html=1;strokeColor=none;fillColor=none;align=center;verticalAlign=middle;whiteSpace=wrap;rounded=0;" parent="1" vertex="1">
          <mxGeometry x="140" y="450" width="80" height="30" as="geometry" />
        </mxCell>
        <mxCell id="mw8O855BMlB_Na9pvbKZ-12" style="edgeStyle=orthogonalEdgeStyle;rounded=0;orthogonalLoop=1;jettySize=auto;html=1;exitX=0.5;exitY=0;exitDx=0;exitDy=0;endArrow=halfCircle;endFill=0;" parent="1" source="mw8O855BMlB_Na9pvbKZ-2" edge="1">
          <mxGeometry relative="1" as="geometry">
            <mxPoint x="220" y="200" as="targetPoint" />
          </mxGeometry>
        </mxCell>
        <mxCell id="mw8O855BMlB_Na9pvbKZ-2" value="«component»&lt;br&gt;&lt;b&gt;Kysely Query Builder&lt;/b&gt;" style="html=1;dropTarget=0;whiteSpace=wrap;" parent="1" vertex="1">
          <mxGeometry x="130" y="230" width="180" height="90" as="geometry" />
        </mxCell>
        <mxCell id="mw8O855BMlB_Na9pvbKZ-3" value="" style="shape=module;jettyWidth=8;jettyHeight=4;" parent="mw8O855BMlB_Na9pvbKZ-2" vertex="1">
          <mxGeometry x="1" width="20" height="20" relative="1" as="geometry">
            <mxPoint x="-27" y="7" as="offset" />
          </mxGeometry>
        </mxCell>
        <mxCell id="mw8O855BMlB_Na9pvbKZ-13" style="edgeStyle=orthogonalEdgeStyle;rounded=0;orthogonalLoop=1;jettySize=auto;html=1;exitX=0.5;exitY=1;exitDx=0;exitDy=0;endArrow=circle;endFill=0;" parent="1" source="mw8O855BMlB_Na9pvbKZ-10" edge="1">
          <mxGeometry relative="1" as="geometry">
            <mxPoint x="220" y="200" as="targetPoint" />
          </mxGeometry>
        </mxCell>
        <mxCell id="mw8O855BMlB_Na9pvbKZ-10" value="«component»&lt;br&gt;&lt;b&gt;Kysely MySql Dialect&lt;/b&gt;" style="html=1;dropTarget=0;whiteSpace=wrap;" parent="1" vertex="1">
          <mxGeometry x="130" y="70" width="180" height="90" as="geometry" />
        </mxCell>
        <mxCell id="mw8O855BMlB_Na9pvbKZ-11" value="" style="shape=module;jettyWidth=8;jettyHeight=4;" parent="mw8O855BMlB_Na9pvbKZ-10" vertex="1">
          <mxGeometry x="1" width="20" height="20" relative="1" as="geometry">
            <mxPoint x="-27" y="7" as="offset" />
          </mxGeometry>
        </mxCell>
        <mxCell id="mw8O855BMlB_Na9pvbKZ-14" value="Kysely Database Dialect" style="text;html=1;strokeColor=none;fillColor=none;align=center;verticalAlign=middle;whiteSpace=wrap;rounded=0;" parent="1" vertex="1">
          <mxGeometry x="230" y="180" width="140" height="30" as="geometry" />
        </mxCell>
        <mxCell id="mw8O855BMlB_Na9pvbKZ-43" style="edgeStyle=orthogonalEdgeStyle;rounded=0;orthogonalLoop=1;jettySize=auto;html=1;exitX=0.5;exitY=1;exitDx=0;exitDy=0;endArrow=circle;endFill=0;" parent="1" source="mw8O855BMlB_Na9pvbKZ-2" edge="1">
          <mxGeometry relative="1" as="geometry">
            <mxPoint x="224.74" y="359" as="targetPoint" />
            <mxPoint x="225" y="309" as="sourcePoint" />
          </mxGeometry>
        </mxCell>
        <mxCell id="mw8O855BMlB_Na9pvbKZ-93" style="edgeStyle=orthogonalEdgeStyle;rounded=0;orthogonalLoop=1;jettySize=auto;html=1;dashed=1;" parent="1" source="mw8O855BMlB_Na9pvbKZ-16" edge="1">
          <mxGeometry relative="1" as="geometry">
            <mxPoint x="224" y="360" as="targetPoint" />
          </mxGeometry>
        </mxCell>
        <mxCell id="mw8O855BMlB_Na9pvbKZ-94" style="edgeStyle=orthogonalEdgeStyle;rounded=0;orthogonalLoop=1;jettySize=auto;html=1;exitX=0.5;exitY=1;exitDx=0;exitDy=0;endArrow=circle;endFill=0;" parent="1" source="mw8O855BMlB_Na9pvbKZ-16" edge="1">
          <mxGeometry relative="1" as="geometry">
            <mxPoint x="230" y="470" as="targetPoint" />
          </mxGeometry>
        </mxCell>
        <mxCell id="mw8O855BMlB_Na9pvbKZ-16" value="&lt;div style=&quot;&quot;&gt;&lt;span style=&quot;background-color: initial;&quot;&gt;«component»&lt;/span&gt;&lt;/div&gt;&lt;b&gt;Kysely Adapter&lt;/b&gt;" style="html=1;dropTarget=0;whiteSpace=wrap;verticalAlign=top;container=0;" parent="1" vertex="1">
          <mxGeometry x="154" y="390" width="140" height="50" as="geometry" />
        </mxCell>
        <mxCell id="mw8O855BMlB_Na9pvbKZ-85" style="edgeStyle=orthogonalEdgeStyle;rounded=0;orthogonalLoop=1;jettySize=auto;html=1;exitX=0.75;exitY=1;exitDx=0;exitDy=0;endArrow=circle;endFill=0;" parent="1" edge="1">
          <mxGeometry relative="1" as="geometry">
            <mxPoint x="420" y="480" as="targetPoint" />
            <mxPoint x="402.5" y="430" as="sourcePoint" />
          </mxGeometry>
        </mxCell>
        <mxCell id="mw8O855BMlB_Na9pvbKZ-97" value="" style="group" parent="1" vertex="1" connectable="0">
          <mxGeometry x="350" y="380" width="150" height="60" as="geometry" />
        </mxCell>
        <mxCell id="mw8O855BMlB_Na9pvbKZ-59" value="&lt;div style=&quot;&quot;&gt;&lt;span style=&quot;background-color: initial;&quot;&gt;«component»&lt;/span&gt;&lt;/div&gt;&lt;b&gt;Server Cache&lt;/b&gt;" style="html=1;dropTarget=0;whiteSpace=wrap;verticalAlign=top;" parent="mw8O855BMlB_Na9pvbKZ-97" vertex="1">
          <mxGeometry width="150" height="59.99999999999999" as="geometry" />
        </mxCell>
        <mxCell id="mw8O855BMlB_Na9pvbKZ-60" value="" style="shape=module;jettyWidth=8;jettyHeight=4;" parent="mw8O855BMlB_Na9pvbKZ-59" vertex="1">
          <mxGeometry x="1" width="20" height="20" relative="1" as="geometry">
            <mxPoint x="-27" y="7" as="offset" />
          </mxGeometry>
        </mxCell>
        <mxCell id="mw8O855BMlB_Na9pvbKZ-103" value="Storer CRUD" style="text;html=1;strokeColor=none;fillColor=none;align=center;verticalAlign=middle;whiteSpace=wrap;rounded=0;" parent="1" vertex="1">
          <mxGeometry x="425" y="460" width="80" height="30" as="geometry" />
        </mxCell>
        <mxCell id="mw8O855BMlB_Na9pvbKZ-112" value="Storer CRUD" style="text;html=1;strokeColor=none;fillColor=none;align=center;verticalAlign=middle;whiteSpace=wrap;rounded=0;" parent="1" vertex="1">
          <mxGeometry x="330" y="560" width="80" height="30" as="geometry" />
        </mxCell>
        <mxCell id="mw8O855BMlB_Na9pvbKZ-120" style="edgeStyle=orthogonalEdgeStyle;rounded=0;orthogonalLoop=1;jettySize=auto;html=1;exitX=1;exitY=0.5;exitDx=0;exitDy=0;endArrow=circle;endFill=0;" parent="1" source="mw8O855BMlB_Na9pvbKZ-113" edge="1">
          <mxGeometry relative="1" as="geometry">
            <mxPoint x="300" y="865" as="targetPoint" />
          </mxGeometry>
        </mxCell>
        <mxCell id="mw8O855BMlB_Na9pvbKZ-113" value="&lt;div style=&quot;&quot;&gt;&lt;span style=&quot;background-color: initial;&quot;&gt;«component»&lt;/span&gt;&lt;/div&gt;&lt;b&gt;Server File Manager&lt;/b&gt;" style="html=1;dropTarget=0;whiteSpace=wrap;verticalAlign=top;container=0;" parent="1" vertex="1">
          <mxGeometry x="100" y="840" width="140" height="50" as="geometry" />
        </mxCell>
        <mxCell id="mw8O855BMlB_Na9pvbKZ-116" style="edgeStyle=orthogonalEdgeStyle;rounded=0;orthogonalLoop=1;jettySize=auto;html=1;endArrow=halfCircle;endFill=0;" parent="1" source="mw8O855BMlB_Na9pvbKZ-115" edge="1">
          <mxGeometry relative="1" as="geometry">
            <mxPoint x="324.25" y="578" as="targetPoint" />
          </mxGeometry>
        </mxCell>
        <mxCell id="mw8O855BMlB_Na9pvbKZ-125" style="edgeStyle=orthogonalEdgeStyle;rounded=0;orthogonalLoop=1;jettySize=auto;html=1;exitX=0.5;exitY=1;exitDx=0;exitDy=0;entryX=0.5;entryY=0;entryDx=0;entryDy=0;endArrow=none;endFill=0;" parent="1" source="mw8O855BMlB_Na9pvbKZ-115" target="mw8O855BMlB_Na9pvbKZ-124" edge="1">
          <mxGeometry relative="1" as="geometry" />
        </mxCell>
        <mxCell id="mw8O855BMlB_Na9pvbKZ-115" value="&lt;div style=&quot;&quot;&gt;&lt;span style=&quot;background-color: initial;&quot;&gt;«component»&lt;/span&gt;&lt;/div&gt;&lt;b&gt;Request Eater&lt;/b&gt;" style="html=1;dropTarget=0;whiteSpace=wrap;verticalAlign=top;container=0;" parent="1" vertex="1">
          <mxGeometry x="254" y="608" width="140" height="50" as="geometry" />
        </mxCell>
        <mxCell id="mw8O855BMlB_Na9pvbKZ-119" value="File Storer" style="text;html=1;strokeColor=none;fillColor=none;align=center;verticalAlign=middle;whiteSpace=wrap;rounded=0;" parent="1" vertex="1">
          <mxGeometry x="250" y="870" width="80" height="30" as="geometry" />
        </mxCell>
        <mxCell id="mw8O855BMlB_Na9pvbKZ-127" style="edgeStyle=orthogonalEdgeStyle;rounded=0;orthogonalLoop=1;jettySize=auto;html=1;exitX=0.5;exitY=1;exitDx=0;exitDy=0;endArrow=circle;endFill=0;" parent="1" source="mw8O855BMlB_Na9pvbKZ-124" edge="1">
          <mxGeometry relative="1" as="geometry">
            <mxPoint x="324" y="770" as="targetPoint" />
          </mxGeometry>
        </mxCell>
        <mxCell id="mw8O855BMlB_Na9pvbKZ-124" value="" style="rounded=0;whiteSpace=wrap;html=1;" parent="1" vertex="1">
          <mxGeometry x="314" y="720" width="20" height="20" as="geometry" />
        </mxCell>
        <mxCell id="mw8O855BMlB_Na9pvbKZ-128" value="CRUD Request" style="text;html=1;strokeColor=none;fillColor=none;align=center;verticalAlign=middle;whiteSpace=wrap;rounded=0;" parent="1" vertex="1">
          <mxGeometry x="330" y="750" width="70" height="30" as="geometry" />
        </mxCell>
        <mxCell id="mw8O855BMlB_Na9pvbKZ-65" value="«component»&lt;br&gt;&lt;b&gt;Cache&lt;/b&gt;" style="html=1;dropTarget=0;whiteSpace=wrap;container=0;" parent="1" vertex="1">
          <mxGeometry x="350" y="300" width="140" height="50" as="geometry" />
        </mxCell>
        <mxCell id="mw8O855BMlB_Na9pvbKZ-137" style="edgeStyle=orthogonalEdgeStyle;rounded=0;orthogonalLoop=1;jettySize=auto;html=1;exitX=0.5;exitY=0;exitDx=0;exitDy=0;entryX=0.5;entryY=1;entryDx=0;entryDy=0;dashed=1;" parent="1" source="mw8O855BMlB_Na9pvbKZ-59" target="mw8O855BMlB_Na9pvbKZ-65" edge="1">
          <mxGeometry relative="1" as="geometry" />
        </mxCell>
        <mxCell id="mw8O855BMlB_Na9pvbKZ-138" value="«subsystem»&lt;br&gt;&lt;b&gt;Client Model&lt;/b&gt;" style="html=1;dropTarget=0;whiteSpace=wrap;fillColor=none;verticalAlign=top;" parent="1" vertex="1">
          <mxGeometry x="640" y="250" width="490" height="480" as="geometry" />
        </mxCell>
        <mxCell id="mw8O855BMlB_Na9pvbKZ-139" value="" style="shape=module;jettyWidth=8;jettyHeight=4;" parent="mw8O855BMlB_Na9pvbKZ-138" vertex="1">
          <mxGeometry x="1" width="20" height="20" relative="1" as="geometry">
            <mxPoint x="-27" y="7" as="offset" />
          </mxGeometry>
        </mxCell>
        <mxCell id="mw8O855BMlB_Na9pvbKZ-140" style="rounded=0;orthogonalLoop=1;jettySize=auto;html=1;exitX=0.964;exitY=0.02;exitDx=0;exitDy=0;endArrow=classic;endFill=1;dashed=1;exitPerimeter=0;" parent="1" edge="1">
          <mxGeometry relative="1" as="geometry">
            <mxPoint x="733" y="480" as="targetPoint" />
            <mxPoint x="733.0299999999997" y="506" as="sourcePoint" />
          </mxGeometry>
        </mxCell>
        <mxCell id="mw8O855BMlB_Na9pvbKZ-142" style="edgeStyle=orthogonalEdgeStyle;rounded=0;orthogonalLoop=1;jettySize=auto;html=1;exitX=0.5;exitY=1;exitDx=0;exitDy=0;endArrow=halfCircle;endFill=0;" parent="1" source="mw8O855BMlB_Na9pvbKZ-143" edge="1">
          <mxGeometry relative="1" as="geometry">
            <mxPoint x="759" y="580" as="targetPoint" />
          </mxGeometry>
        </mxCell>
        <mxCell id="mw8O855BMlB_Na9pvbKZ-184" style="edgeStyle=orthogonalEdgeStyle;rounded=0;orthogonalLoop=1;jettySize=auto;html=1;entryX=0;entryY=0.5;entryDx=0;entryDy=0;endArrow=none;endFill=0;startArrow=halfCircle;startFill=0;" parent="1" target="mw8O855BMlB_Na9pvbKZ-183" edge="1">
          <mxGeometry relative="1" as="geometry">
            <mxPoint x="1050" y="530" as="sourcePoint" />
          </mxGeometry>
        </mxCell>
        <mxCell id="mw8O855BMlB_Na9pvbKZ-187" style="edgeStyle=orthogonalEdgeStyle;rounded=0;orthogonalLoop=1;jettySize=auto;html=1;exitX=1;exitY=0.5;exitDx=0;exitDy=0;endArrow=circle;endFill=0;" parent="1" source="mw8O855BMlB_Na9pvbKZ-143" edge="1">
          <mxGeometry relative="1" as="geometry">
            <mxPoint x="1050" y="530" as="targetPoint" />
          </mxGeometry>
        </mxCell>
        <mxCell id="mw8O855BMlB_Na9pvbKZ-143" value="&lt;div style=&quot;&quot;&gt;&lt;span style=&quot;background-color: initial;&quot;&gt;«component»&lt;/span&gt;&lt;/div&gt;&lt;b&gt;Client Cache-First Store&lt;/b&gt;" style="html=1;dropTarget=0;whiteSpace=wrap;verticalAlign=top;fillColor=default;" parent="1" vertex="1">
          <mxGeometry x="655" y="505" width="207.5" height="50" as="geometry" />
        </mxCell>
        <mxCell id="mw8O855BMlB_Na9pvbKZ-144" value="" style="shape=module;jettyWidth=8;jettyHeight=4;" parent="mw8O855BMlB_Na9pvbKZ-143" vertex="1">
          <mxGeometry x="1" width="20" height="20" relative="1" as="geometry">
            <mxPoint x="-27" y="7" as="offset" />
          </mxGeometry>
        </mxCell>
        <mxCell id="mw8O855BMlB_Na9pvbKZ-157" style="edgeStyle=orthogonalEdgeStyle;rounded=0;orthogonalLoop=1;jettySize=auto;html=1;exitX=0.75;exitY=1;exitDx=0;exitDy=0;endArrow=circle;endFill=0;" parent="1" edge="1">
          <mxGeometry relative="1" as="geometry">
            <mxPoint x="733" y="480" as="targetPoint" />
            <mxPoint x="715.5" y="430" as="sourcePoint" />
          </mxGeometry>
        </mxCell>
        <mxCell id="mw8O855BMlB_Na9pvbKZ-158" value="" style="group" parent="1" vertex="1" connectable="0">
          <mxGeometry x="663" y="380" width="150" height="60" as="geometry" />
        </mxCell>
        <mxCell id="mw8O855BMlB_Na9pvbKZ-159" value="&lt;div style=&quot;&quot;&gt;&lt;span style=&quot;background-color: initial;&quot;&gt;«component»&lt;/span&gt;&lt;/div&gt;&lt;b&gt;Client Cache&lt;/b&gt;" style="html=1;dropTarget=0;whiteSpace=wrap;verticalAlign=top;" parent="mw8O855BMlB_Na9pvbKZ-158" vertex="1">
          <mxGeometry width="150" height="59.99999999999999" as="geometry" />
        </mxCell>
        <mxCell id="mw8O855BMlB_Na9pvbKZ-160" value="" style="shape=module;jettyWidth=8;jettyHeight=4;" parent="mw8O855BMlB_Na9pvbKZ-159" vertex="1">
          <mxGeometry x="1" width="20" height="20" relative="1" as="geometry">
            <mxPoint x="-27" y="7" as="offset" />
          </mxGeometry>
        </mxCell>
        <mxCell id="mw8O855BMlB_Na9pvbKZ-161" value="Storer CRUD" style="text;html=1;strokeColor=none;fillColor=none;align=center;verticalAlign=middle;whiteSpace=wrap;rounded=0;" parent="1" vertex="1">
          <mxGeometry x="738" y="460" width="80" height="30" as="geometry" />
        </mxCell>
        <mxCell id="mw8O855BMlB_Na9pvbKZ-162" value="Storer CRUD" style="text;html=1;strokeColor=none;fillColor=none;align=center;verticalAlign=middle;whiteSpace=wrap;rounded=0;" parent="1" vertex="1">
          <mxGeometry x="765" y="560" width="80" height="30" as="geometry" />
        </mxCell>
        <mxCell id="mw8O855BMlB_Na9pvbKZ-165" style="edgeStyle=orthogonalEdgeStyle;rounded=0;orthogonalLoop=1;jettySize=auto;html=1;endArrow=circle;endFill=0;" parent="1" source="mw8O855BMlB_Na9pvbKZ-168" edge="1">
          <mxGeometry relative="1" as="geometry">
            <mxPoint x="759.25" y="578" as="targetPoint" />
          </mxGeometry>
        </mxCell>
        <mxCell id="mw8O855BMlB_Na9pvbKZ-167" style="edgeStyle=orthogonalEdgeStyle;rounded=0;orthogonalLoop=1;jettySize=auto;html=1;exitX=0.5;exitY=1;exitDx=0;exitDy=0;entryX=0.5;entryY=0;entryDx=0;entryDy=0;endArrow=halfCircle;endFill=0;" parent="1" source="mw8O855BMlB_Na9pvbKZ-168" edge="1">
          <mxGeometry relative="1" as="geometry">
            <mxPoint x="759" y="720" as="targetPoint" />
          </mxGeometry>
        </mxCell>
        <mxCell id="mw8O855BMlB_Na9pvbKZ-168" value="&lt;div style=&quot;&quot;&gt;&lt;span style=&quot;background-color: initial;&quot;&gt;«component»&lt;/span&gt;&lt;/div&gt;&lt;b&gt;Requester&lt;/b&gt;" style="html=1;dropTarget=0;whiteSpace=wrap;verticalAlign=top;container=0;" parent="1" vertex="1">
          <mxGeometry x="689" y="608" width="140" height="50" as="geometry" />
        </mxCell>
        <mxCell id="mw8O855BMlB_Na9pvbKZ-172" value="CRUD Request" style="text;html=1;strokeColor=none;fillColor=none;align=center;verticalAlign=middle;whiteSpace=wrap;rounded=0;" parent="1" vertex="1">
          <mxGeometry x="765" y="700" width="70" height="30" as="geometry" />
        </mxCell>
        <mxCell id="mw8O855BMlB_Na9pvbKZ-173" value="«component»&lt;br&gt;&lt;b&gt;Cache&lt;/b&gt;" style="html=1;dropTarget=0;whiteSpace=wrap;container=0;" parent="1" vertex="1">
          <mxGeometry x="663" y="300" width="140" height="50" as="geometry" />
        </mxCell>
        <mxCell id="mw8O855BMlB_Na9pvbKZ-174" style="edgeStyle=orthogonalEdgeStyle;rounded=0;orthogonalLoop=1;jettySize=auto;html=1;exitX=0.5;exitY=0;exitDx=0;exitDy=0;entryX=0.5;entryY=1;entryDx=0;entryDy=0;dashed=1;" parent="1" source="mw8O855BMlB_Na9pvbKZ-159" target="mw8O855BMlB_Na9pvbKZ-173" edge="1">
          <mxGeometry relative="1" as="geometry" />
        </mxCell>
        <mxCell id="mw8O855BMlB_Na9pvbKZ-175" value="«component»&lt;br&gt;&lt;b&gt;Local Storage Store&lt;/b&gt;" style="html=1;dropTarget=0;whiteSpace=wrap;container=0;" parent="1" vertex="1">
          <mxGeometry x="835" y="300" width="140" height="50" as="geometry" />
        </mxCell>
        <mxCell id="mw8O855BMlB_Na9pvbKZ-176" style="edgeStyle=orthogonalEdgeStyle;rounded=0;orthogonalLoop=1;jettySize=auto;html=1;exitX=1;exitY=0.5;exitDx=0;exitDy=0;entryX=0.5;entryY=1;entryDx=0;entryDy=0;dashed=1;" parent="1" source="mw8O855BMlB_Na9pvbKZ-159" target="mw8O855BMlB_Na9pvbKZ-175" edge="1">
          <mxGeometry relative="1" as="geometry" />
        </mxCell>
        <mxCell id="mw8O855BMlB_Na9pvbKZ-177" style="edgeStyle=orthogonalEdgeStyle;rounded=0;orthogonalLoop=1;jettySize=auto;html=1;exitX=1;exitY=0.5;exitDx=0;exitDy=0;endArrow=circle;endFill=0;" parent="1" source="mw8O855BMlB_Na9pvbKZ-178" edge="1">
          <mxGeometry relative="1" as="geometry">
            <mxPoint x="1060" y="633" as="targetPoint" />
          </mxGeometry>
        </mxCell>
        <mxCell id="mw8O855BMlB_Na9pvbKZ-178" value="&lt;div style=&quot;&quot;&gt;&lt;span style=&quot;background-color: initial;&quot;&gt;«component»&lt;/span&gt;&lt;/div&gt;&lt;b&gt;Server File Manager&lt;/b&gt;" style="html=1;dropTarget=0;whiteSpace=wrap;verticalAlign=top;container=0;" parent="1" vertex="1">
          <mxGeometry x="860" y="608" width="140" height="50" as="geometry" />
        </mxCell>
        <mxCell id="mw8O855BMlB_Na9pvbKZ-179" style="edgeStyle=orthogonalEdgeStyle;rounded=0;orthogonalLoop=1;jettySize=auto;html=1;endArrow=halfCircle;endFill=0;exitX=0;exitY=0.5;exitDx=0;exitDy=0;" parent="1" source="mw8O855BMlB_Na9pvbKZ-192" edge="1">
          <mxGeometry relative="1" as="geometry">
            <mxPoint x="1060" y="633" as="targetPoint" />
            <mxPoint x="1090" y="633" as="sourcePoint" />
          </mxGeometry>
        </mxCell>
        <mxCell id="mw8O855BMlB_Na9pvbKZ-180" value="File Storer" style="text;html=1;strokeColor=none;fillColor=none;align=center;verticalAlign=middle;whiteSpace=wrap;rounded=0;" parent="1" vertex="1">
          <mxGeometry x="1010" y="638" width="80" height="30" as="geometry" />
        </mxCell>
        <mxCell id="mw8O855BMlB_Na9pvbKZ-185" style="edgeStyle=orthogonalEdgeStyle;rounded=0;orthogonalLoop=1;jettySize=auto;html=1;exitX=1;exitY=0.5;exitDx=0;exitDy=0;endArrow=circle;endFill=0;" parent="1" source="mw8O855BMlB_Na9pvbKZ-183" edge="1">
          <mxGeometry relative="1" as="geometry">
            <mxPoint x="1170" y="530" as="targetPoint" />
          </mxGeometry>
        </mxCell>
        <mxCell id="mw8O855BMlB_Na9pvbKZ-183" value="" style="rounded=0;whiteSpace=wrap;html=1;" parent="1" vertex="1">
          <mxGeometry x="1120" y="520" width="20" height="20" as="geometry" />
        </mxCell>
        <mxCell id="mw8O855BMlB_Na9pvbKZ-186" value="Storer CRUD" style="text;html=1;strokeColor=none;fillColor=none;align=center;verticalAlign=middle;whiteSpace=wrap;rounded=0;" parent="1" vertex="1">
          <mxGeometry x="1130" y="535" width="80" height="30" as="geometry" />
        </mxCell>
        <mxCell id="mw8O855BMlB_Na9pvbKZ-188" value="Storer CRUD" style="text;html=1;strokeColor=none;fillColor=none;align=center;verticalAlign=middle;whiteSpace=wrap;rounded=0;" parent="1" vertex="1">
          <mxGeometry x="1010" y="540" width="80" height="30" as="geometry" />
        </mxCell>
        <mxCell id="mw8O855BMlB_Na9pvbKZ-191" style="edgeStyle=orthogonalEdgeStyle;rounded=0;orthogonalLoop=1;jettySize=auto;html=1;exitX=1;exitY=0.5;exitDx=0;exitDy=0;endArrow=circle;endFill=0;" parent="1" source="mw8O855BMlB_Na9pvbKZ-192" edge="1">
          <mxGeometry relative="1" as="geometry">
            <mxPoint x="1170" y="633" as="targetPoint" />
          </mxGeometry>
        </mxCell>
        <mxCell id="mw8O855BMlB_Na9pvbKZ-192" value="" style="rounded=0;whiteSpace=wrap;html=1;" parent="1" vertex="1">
          <mxGeometry x="1120" y="623" width="20" height="20" as="geometry" />
        </mxCell>
        <mxCell id="mw8O855BMlB_Na9pvbKZ-193" value="File Storer" style="text;html=1;strokeColor=none;fillColor=none;align=center;verticalAlign=middle;whiteSpace=wrap;rounded=0;" parent="1" vertex="1">
          <mxGeometry x="1130" y="638" width="80" height="30" as="geometry" />
        </mxCell>
        <mxCell id="mw8O855BMlB_Na9pvbKZ-194" value="Kysely CRUD" style="text;html=1;strokeColor=none;fillColor=none;align=center;verticalAlign=middle;whiteSpace=wrap;rounded=0;" parent="1" vertex="1">
          <mxGeometry x="206" y="340" width="140" height="30" as="geometry" />
        </mxCell>
        <mxCell id="mw8O855BMlB_Na9pvbKZ-232" style="edgeStyle=orthogonalEdgeStyle;rounded=0;orthogonalLoop=1;jettySize=auto;html=1;exitX=0.5;exitY=0;exitDx=0;exitDy=0;entryX=0.5;entryY=1;entryDx=0;entryDy=0;dashed=1;" parent="1" source="mw8O855BMlB_Na9pvbKZ-229" target="mw8O855BMlB_Na9pvbKZ-231" edge="1">
          <mxGeometry relative="1" as="geometry" />
        </mxCell>
        <mxCell id="sBkvKJEpbp7YlsV0ummN-12" style="edgeStyle=orthogonalEdgeStyle;rounded=0;orthogonalLoop=1;jettySize=auto;html=1;exitX=1;exitY=0.5;exitDx=0;exitDy=0;endArrow=halfCircle;endFill=0;" parent="1" source="mw8O855BMlB_Na9pvbKZ-229" edge="1">
          <mxGeometry relative="1" as="geometry">
            <mxPoint x="1110" y="920.3684210526317" as="targetPoint" />
          </mxGeometry>
        </mxCell>
        <mxCell id="sBkvKJEpbp7YlsV0ummN-15" style="edgeStyle=orthogonalEdgeStyle;rounded=0;orthogonalLoop=1;jettySize=auto;html=1;exitX=0.5;exitY=1;exitDx=0;exitDy=0;endArrow=halfCircle;endFill=0;" parent="1" source="mw8O855BMlB_Na9pvbKZ-229" edge="1">
          <mxGeometry relative="1" as="geometry">
            <mxPoint x="985.2631578947371" y="980" as="targetPoint" />
          </mxGeometry>
        </mxCell>
        <mxCell id="mw8O855BMlB_Na9pvbKZ-229" value="«component»&lt;br&gt;&lt;b&gt;Svelte Frontend&lt;/b&gt;" style="html=1;dropTarget=0;whiteSpace=wrap;" parent="1" vertex="1">
          <mxGeometry x="910" y="891" width="150" height="59" as="geometry" />
        </mxCell>
        <mxCell id="mw8O855BMlB_Na9pvbKZ-230" value="" style="shape=module;jettyWidth=8;jettyHeight=4;" parent="mw8O855BMlB_Na9pvbKZ-229" vertex="1">
          <mxGeometry x="1" width="20" height="20" relative="1" as="geometry">
            <mxPoint x="-27" y="7" as="offset" />
          </mxGeometry>
        </mxCell>
        <mxCell id="mw8O855BMlB_Na9pvbKZ-231" value="«component»&lt;br&gt;&lt;b&gt;Local Storage Store&lt;/b&gt;" style="html=1;dropTarget=0;whiteSpace=wrap;container=0;" parent="1" vertex="1">
          <mxGeometry x="915" y="800" width="140" height="50" as="geometry" />
        </mxCell>
        <mxCell id="sBkvKJEpbp7YlsV0ummN-2" style="edgeStyle=orthogonalEdgeStyle;rounded=0;orthogonalLoop=1;jettySize=auto;html=1;exitX=1;exitY=0.5;exitDx=0;exitDy=0;endArrow=halfCircle;endFill=0;" parent="1" source="sBkvKJEpbp7YlsV0ummN-3" edge="1">
          <mxGeometry relative="1" as="geometry">
            <mxPoint x="640" y="860" as="targetPoint" />
          </mxGeometry>
        </mxCell>
        <mxCell id="sBkvKJEpbp7YlsV0ummN-9" style="edgeStyle=orthogonalEdgeStyle;rounded=0;orthogonalLoop=1;jettySize=auto;html=1;exitX=0.5;exitY=0;exitDx=0;exitDy=0;endArrow=halfCircle;endFill=0;" parent="1" source="sBkvKJEpbp7YlsV0ummN-3" edge="1">
          <mxGeometry relative="1" as="geometry">
            <mxPoint x="510.52631578947376" y="810" as="targetPoint" />
          </mxGeometry>
        </mxCell>
        <mxCell id="sBkvKJEpbp7YlsV0ummN-3" value="&lt;div style=&quot;&quot;&gt;&lt;span style=&quot;background-color: initial;&quot;&gt;«component»&lt;/span&gt;&lt;/div&gt;&lt;b&gt;Server Controller&lt;/b&gt;" style="html=1;dropTarget=0;whiteSpace=wrap;verticalAlign=top;container=0;" parent="1" vertex="1">
          <mxGeometry x="440" y="835" width="140" height="50" as="geometry" />
        </mxCell>
        <mxCell id="sBkvKJEpbp7YlsV0ummN-4" value="File Storer" style="text;html=1;strokeColor=none;fillColor=none;align=center;verticalAlign=middle;whiteSpace=wrap;rounded=0;" parent="1" vertex="1">
          <mxGeometry x="590" y="865" width="80" height="30" as="geometry" />
        </mxCell>
        <mxCell id="sBkvKJEpbp7YlsV0ummN-10" value="CRUD Request" style="text;html=1;strokeColor=none;fillColor=none;align=center;verticalAlign=middle;whiteSpace=wrap;rounded=0;" parent="1" vertex="1">
          <mxGeometry x="510" y="800" width="80" height="30" as="geometry" />
        </mxCell>
        <mxCell id="sBkvKJEpbp7YlsV0ummN-13" value="File Storer" style="text;html=1;strokeColor=none;fillColor=none;align=center;verticalAlign=middle;whiteSpace=wrap;rounded=0;" parent="1" vertex="1">
          <mxGeometry x="1070" y="930" width="80" height="30" as="geometry" />
        </mxCell>
        <mxCell id="sBkvKJEpbp7YlsV0ummN-16" value="CRUD Request" style="text;html=1;strokeColor=none;fillColor=none;align=center;verticalAlign=middle;whiteSpace=wrap;rounded=0;" parent="1" vertex="1">
          <mxGeometry x="990" y="960" width="65" height="30" as="geometry" />
        </mxCell>
      </root>
    </mxGraphModel>
  </diagram>
  <diagram name="Copy of component" id="Um5hFl1RgZRSYiaj-2Tc">
    <mxGraphModel dx="2049" dy="1190" grid="1" gridSize="10" guides="1" tooltips="1" connect="1" arrows="1" fold="1" page="1" pageScale="1" pageWidth="850" pageHeight="1100" math="0" shadow="0">
      <root>
        <mxCell id="1-wsIcYogjCO62ElqLYZ-0" />
        <mxCell id="1-wsIcYogjCO62ElqLYZ-1" parent="1-wsIcYogjCO62ElqLYZ-0" />
        <mxCell id="Z_M3NOQTqlTmAEms_VVB-20" value="«subsystem»&lt;br&gt;&lt;b&gt;Client&lt;/b&gt;" style="html=1;dropTarget=0;whiteSpace=wrap;fillColor=none;verticalAlign=top;" parent="1-wsIcYogjCO62ElqLYZ-1" vertex="1">
          <mxGeometry x="890" y="750" width="410" height="400" as="geometry" />
        </mxCell>
        <mxCell id="Z_M3NOQTqlTmAEms_VVB-21" value="" style="shape=module;jettyWidth=8;jettyHeight=4;" parent="Z_M3NOQTqlTmAEms_VVB-20" vertex="1">
          <mxGeometry x="1" width="20" height="20" relative="1" as="geometry">
            <mxPoint x="-27" y="7" as="offset" />
          </mxGeometry>
        </mxCell>
        <mxCell id="Z_M3NOQTqlTmAEms_VVB-11" value="«subsystem»&lt;br&gt;&lt;b&gt;Client Controller&lt;/b&gt;" style="html=1;dropTarget=0;whiteSpace=wrap;fillColor=none;verticalAlign=top;" parent="1-wsIcYogjCO62ElqLYZ-1" vertex="1">
          <mxGeometry x="640" y="250" width="370" height="480" as="geometry" />
        </mxCell>
        <mxCell id="Z_M3NOQTqlTmAEms_VVB-12" value="" style="shape=module;jettyWidth=8;jettyHeight=4;" parent="Z_M3NOQTqlTmAEms_VVB-11" vertex="1">
          <mxGeometry x="1" width="20" height="20" relative="1" as="geometry">
            <mxPoint x="-27" y="7" as="offset" />
          </mxGeometry>
        </mxCell>
        <mxCell id="1-wsIcYogjCO62ElqLYZ-2" value="«subsystem»&lt;br&gt;&lt;b&gt;Server Model&lt;/b&gt;" style="html=1;dropTarget=0;whiteSpace=wrap;fillColor=none;verticalAlign=top;" parent="1-wsIcYogjCO62ElqLYZ-1" vertex="1">
          <mxGeometry x="10" y="20" width="590" height="710" as="geometry" />
        </mxCell>
        <mxCell id="1-wsIcYogjCO62ElqLYZ-3" value="" style="shape=module;jettyWidth=8;jettyHeight=4;" parent="1-wsIcYogjCO62ElqLYZ-2" vertex="1">
          <mxGeometry x="1" width="20" height="20" relative="1" as="geometry">
            <mxPoint x="-27" y="7" as="offset" />
          </mxGeometry>
        </mxCell>
        <mxCell id="1-wsIcYogjCO62ElqLYZ-4" style="rounded=0;orthogonalLoop=1;jettySize=auto;html=1;exitX=0.964;exitY=0.02;exitDx=0;exitDy=0;endArrow=classic;endFill=1;dashed=1;exitPerimeter=0;" parent="1-wsIcYogjCO62ElqLYZ-1" source="1-wsIcYogjCO62ElqLYZ-7" edge="1">
          <mxGeometry relative="1" as="geometry">
            <mxPoint x="420" y="480" as="targetPoint" />
          </mxGeometry>
        </mxCell>
        <mxCell id="1-wsIcYogjCO62ElqLYZ-5" style="edgeStyle=orthogonalEdgeStyle;rounded=0;orthogonalLoop=1;jettySize=auto;html=1;exitX=0.25;exitY=0;exitDx=0;exitDy=0;endArrow=halfCircle;endFill=0;" parent="1-wsIcYogjCO62ElqLYZ-1" source="1-wsIcYogjCO62ElqLYZ-7" edge="1">
          <mxGeometry relative="1" as="geometry">
            <mxPoint x="230" y="470" as="targetPoint" />
          </mxGeometry>
        </mxCell>
        <mxCell id="1-wsIcYogjCO62ElqLYZ-6" style="edgeStyle=orthogonalEdgeStyle;rounded=0;orthogonalLoop=1;jettySize=auto;html=1;exitX=0.5;exitY=1;exitDx=0;exitDy=0;endArrow=circle;endFill=0;" parent="1-wsIcYogjCO62ElqLYZ-1" source="1-wsIcYogjCO62ElqLYZ-7" edge="1">
          <mxGeometry relative="1" as="geometry">
            <mxPoint x="324" y="580" as="targetPoint" />
          </mxGeometry>
        </mxCell>
        <mxCell id="Z_M3NOQTqlTmAEms_VVB-10" style="rounded=0;orthogonalLoop=1;jettySize=auto;html=1;exitX=0.75;exitY=0;exitDx=0;exitDy=0;dashed=1;" parent="1-wsIcYogjCO62ElqLYZ-1" source="1-wsIcYogjCO62ElqLYZ-7" edge="1">
          <mxGeometry relative="1" as="geometry">
            <mxPoint x="400" y="470" as="targetPoint" />
          </mxGeometry>
        </mxCell>
        <mxCell id="1-wsIcYogjCO62ElqLYZ-7" value="&lt;div style=&quot;&quot;&gt;&lt;span style=&quot;background-color: initial;&quot;&gt;«component»&lt;/span&gt;&lt;/div&gt;&lt;b&gt;Server Cache-First Store&lt;/b&gt;" style="html=1;dropTarget=0;whiteSpace=wrap;verticalAlign=top;fillColor=default;" parent="1-wsIcYogjCO62ElqLYZ-1" vertex="1">
          <mxGeometry x="220" y="505" width="207.5" height="50" as="geometry" />
        </mxCell>
        <mxCell id="1-wsIcYogjCO62ElqLYZ-8" value="" style="shape=module;jettyWidth=8;jettyHeight=4;" parent="1-wsIcYogjCO62ElqLYZ-7" vertex="1">
          <mxGeometry x="1" width="20" height="20" relative="1" as="geometry">
            <mxPoint x="-27" y="7" as="offset" />
          </mxGeometry>
        </mxCell>
        <mxCell id="1-wsIcYogjCO62ElqLYZ-9" value="Storer CRUD" style="text;html=1;strokeColor=none;fillColor=none;align=center;verticalAlign=middle;whiteSpace=wrap;rounded=0;" parent="1-wsIcYogjCO62ElqLYZ-1" vertex="1">
          <mxGeometry x="140" y="450" width="80" height="30" as="geometry" />
        </mxCell>
        <mxCell id="1-wsIcYogjCO62ElqLYZ-10" style="edgeStyle=orthogonalEdgeStyle;rounded=0;orthogonalLoop=1;jettySize=auto;html=1;exitX=0.5;exitY=0;exitDx=0;exitDy=0;endArrow=halfCircle;endFill=0;" parent="1-wsIcYogjCO62ElqLYZ-1" source="1-wsIcYogjCO62ElqLYZ-11" edge="1">
          <mxGeometry relative="1" as="geometry">
            <mxPoint x="220" y="200" as="targetPoint" />
          </mxGeometry>
        </mxCell>
        <mxCell id="1-wsIcYogjCO62ElqLYZ-11" value="«component»&lt;br&gt;&lt;b&gt;Kysely Query Builder&lt;/b&gt;" style="html=1;dropTarget=0;whiteSpace=wrap;" parent="1-wsIcYogjCO62ElqLYZ-1" vertex="1">
          <mxGeometry x="130" y="230" width="180" height="90" as="geometry" />
        </mxCell>
        <mxCell id="1-wsIcYogjCO62ElqLYZ-12" value="" style="shape=module;jettyWidth=8;jettyHeight=4;" parent="1-wsIcYogjCO62ElqLYZ-11" vertex="1">
          <mxGeometry x="1" width="20" height="20" relative="1" as="geometry">
            <mxPoint x="-27" y="7" as="offset" />
          </mxGeometry>
        </mxCell>
        <mxCell id="1-wsIcYogjCO62ElqLYZ-13" style="edgeStyle=orthogonalEdgeStyle;rounded=0;orthogonalLoop=1;jettySize=auto;html=1;exitX=0.5;exitY=1;exitDx=0;exitDy=0;endArrow=circle;endFill=0;" parent="1-wsIcYogjCO62ElqLYZ-1" source="1-wsIcYogjCO62ElqLYZ-14" edge="1">
          <mxGeometry relative="1" as="geometry">
            <mxPoint x="220" y="200" as="targetPoint" />
          </mxGeometry>
        </mxCell>
        <mxCell id="1-wsIcYogjCO62ElqLYZ-14" value="«artifact»&lt;br&gt;&lt;b&gt;Kysely MySql Dialect&lt;/b&gt;" style="html=1;dropTarget=0;whiteSpace=wrap;" parent="1-wsIcYogjCO62ElqLYZ-1" vertex="1">
          <mxGeometry x="130" y="70" width="180" height="90" as="geometry" />
        </mxCell>
        <mxCell id="1-wsIcYogjCO62ElqLYZ-16" value="Kysely Database Dialect" style="text;html=1;strokeColor=none;fillColor=none;align=center;verticalAlign=middle;whiteSpace=wrap;rounded=0;" parent="1-wsIcYogjCO62ElqLYZ-1" vertex="1">
          <mxGeometry x="230" y="180" width="140" height="30" as="geometry" />
        </mxCell>
        <mxCell id="1-wsIcYogjCO62ElqLYZ-17" style="edgeStyle=orthogonalEdgeStyle;rounded=0;orthogonalLoop=1;jettySize=auto;html=1;exitX=0.5;exitY=1;exitDx=0;exitDy=0;endArrow=circle;endFill=0;" parent="1-wsIcYogjCO62ElqLYZ-1" source="1-wsIcYogjCO62ElqLYZ-11" edge="1">
          <mxGeometry relative="1" as="geometry">
            <mxPoint x="224.74" y="359" as="targetPoint" />
            <mxPoint x="225" y="309" as="sourcePoint" />
          </mxGeometry>
        </mxCell>
        <mxCell id="1-wsIcYogjCO62ElqLYZ-18" style="edgeStyle=orthogonalEdgeStyle;rounded=0;orthogonalLoop=1;jettySize=auto;html=1;dashed=1;" parent="1-wsIcYogjCO62ElqLYZ-1" source="1-wsIcYogjCO62ElqLYZ-20" edge="1">
          <mxGeometry relative="1" as="geometry">
            <mxPoint x="224" y="360" as="targetPoint" />
          </mxGeometry>
        </mxCell>
        <mxCell id="1-wsIcYogjCO62ElqLYZ-19" style="edgeStyle=orthogonalEdgeStyle;rounded=0;orthogonalLoop=1;jettySize=auto;html=1;exitX=0.5;exitY=1;exitDx=0;exitDy=0;endArrow=circle;endFill=0;" parent="1-wsIcYogjCO62ElqLYZ-1" source="1-wsIcYogjCO62ElqLYZ-20" edge="1">
          <mxGeometry relative="1" as="geometry">
            <mxPoint x="230" y="470" as="targetPoint" />
          </mxGeometry>
        </mxCell>
        <mxCell id="1-wsIcYogjCO62ElqLYZ-20" value="&lt;div style=&quot;&quot;&gt;&lt;span style=&quot;background-color: initial;&quot;&gt;«component»&lt;/span&gt;&lt;/div&gt;&lt;b&gt;Kysely Adapter&lt;/b&gt;" style="html=1;dropTarget=0;whiteSpace=wrap;verticalAlign=top;container=0;" parent="1-wsIcYogjCO62ElqLYZ-1" vertex="1">
          <mxGeometry x="154" y="390" width="140" height="50" as="geometry" />
        </mxCell>
        <mxCell id="1-wsIcYogjCO62ElqLYZ-21" style="edgeStyle=orthogonalEdgeStyle;rounded=0;orthogonalLoop=1;jettySize=auto;html=1;exitX=0.75;exitY=1;exitDx=0;exitDy=0;endArrow=circle;endFill=0;" parent="1-wsIcYogjCO62ElqLYZ-1" edge="1">
          <mxGeometry relative="1" as="geometry">
            <mxPoint x="420" y="480" as="targetPoint" />
            <mxPoint x="402.5" y="430" as="sourcePoint" />
          </mxGeometry>
        </mxCell>
        <mxCell id="1-wsIcYogjCO62ElqLYZ-22" value="" style="group" parent="1-wsIcYogjCO62ElqLYZ-1" vertex="1" connectable="0">
          <mxGeometry x="350" y="380" width="150" height="60" as="geometry" />
        </mxCell>
        <mxCell id="1-wsIcYogjCO62ElqLYZ-23" value="&lt;div style=&quot;&quot;&gt;&lt;span style=&quot;background-color: initial;&quot;&gt;«component»&lt;/span&gt;&lt;/div&gt;&lt;b&gt;Server Cache&lt;/b&gt;" style="html=1;dropTarget=0;whiteSpace=wrap;verticalAlign=top;" parent="1-wsIcYogjCO62ElqLYZ-22" vertex="1">
          <mxGeometry width="150" height="59.99999999999999" as="geometry" />
        </mxCell>
        <mxCell id="1-wsIcYogjCO62ElqLYZ-24" value="" style="shape=module;jettyWidth=8;jettyHeight=4;" parent="1-wsIcYogjCO62ElqLYZ-23" vertex="1">
          <mxGeometry x="1" width="20" height="20" relative="1" as="geometry">
            <mxPoint x="-27" y="7" as="offset" />
          </mxGeometry>
        </mxCell>
        <mxCell id="1-wsIcYogjCO62ElqLYZ-25" value="Storer CRUD" style="text;html=1;strokeColor=none;fillColor=none;align=center;verticalAlign=middle;whiteSpace=wrap;rounded=0;" parent="1-wsIcYogjCO62ElqLYZ-1" vertex="1">
          <mxGeometry x="425" y="460" width="80" height="30" as="geometry" />
        </mxCell>
        <mxCell id="1-wsIcYogjCO62ElqLYZ-26" value="Storer CRUD" style="text;html=1;strokeColor=none;fillColor=none;align=center;verticalAlign=middle;whiteSpace=wrap;rounded=0;" parent="1-wsIcYogjCO62ElqLYZ-1" vertex="1">
          <mxGeometry x="330" y="560" width="80" height="30" as="geometry" />
        </mxCell>
        <mxCell id="1-wsIcYogjCO62ElqLYZ-27" style="edgeStyle=orthogonalEdgeStyle;rounded=0;orthogonalLoop=1;jettySize=auto;html=1;exitX=1;exitY=0.5;exitDx=0;exitDy=0;endArrow=circle;endFill=0;" parent="1-wsIcYogjCO62ElqLYZ-1" source="1-wsIcYogjCO62ElqLYZ-28" edge="1">
          <mxGeometry relative="1" as="geometry">
            <mxPoint x="749" y="1020" as="targetPoint" />
          </mxGeometry>
        </mxCell>
        <mxCell id="1-wsIcYogjCO62ElqLYZ-28" value="&lt;div style=&quot;&quot;&gt;&lt;span style=&quot;background-color: initial;&quot;&gt;«component»&lt;/span&gt;&lt;/div&gt;&lt;b&gt;Server File Manager&lt;/b&gt;" style="html=1;dropTarget=0;whiteSpace=wrap;verticalAlign=top;container=0;" parent="1-wsIcYogjCO62ElqLYZ-1" vertex="1">
          <mxGeometry x="549" y="995" width="140" height="50" as="geometry" />
        </mxCell>
        <mxCell id="1-wsIcYogjCO62ElqLYZ-29" style="edgeStyle=orthogonalEdgeStyle;rounded=0;orthogonalLoop=1;jettySize=auto;html=1;endArrow=halfCircle;endFill=0;" parent="1-wsIcYogjCO62ElqLYZ-1" source="1-wsIcYogjCO62ElqLYZ-31" edge="1">
          <mxGeometry relative="1" as="geometry">
            <mxPoint x="324.25" y="578" as="targetPoint" />
          </mxGeometry>
        </mxCell>
        <mxCell id="1-wsIcYogjCO62ElqLYZ-30" style="edgeStyle=orthogonalEdgeStyle;rounded=0;orthogonalLoop=1;jettySize=auto;html=1;exitX=0.5;exitY=1;exitDx=0;exitDy=0;endArrow=circle;endFill=0;" parent="1-wsIcYogjCO62ElqLYZ-1" source="1-wsIcYogjCO62ElqLYZ-31" edge="1">
          <mxGeometry relative="1" as="geometry">
            <mxPoint x="324" y="680" as="targetPoint" />
          </mxGeometry>
        </mxCell>
        <mxCell id="1-wsIcYogjCO62ElqLYZ-31" value="&lt;div style=&quot;&quot;&gt;&lt;span style=&quot;background-color: initial;&quot;&gt;«component»&lt;/span&gt;&lt;/div&gt;&lt;b&gt;Request Eater&lt;/b&gt;" style="html=1;dropTarget=0;whiteSpace=wrap;verticalAlign=top;container=0;" parent="1-wsIcYogjCO62ElqLYZ-1" vertex="1">
          <mxGeometry x="254" y="608" width="140" height="50" as="geometry" />
        </mxCell>
        <mxCell id="1-wsIcYogjCO62ElqLYZ-32" value="File Storer" style="text;html=1;strokeColor=none;fillColor=none;align=center;verticalAlign=middle;whiteSpace=wrap;rounded=0;" parent="1-wsIcYogjCO62ElqLYZ-1" vertex="1">
          <mxGeometry x="699" y="1025" width="80" height="30" as="geometry" />
        </mxCell>
        <mxCell id="1-wsIcYogjCO62ElqLYZ-33" style="edgeStyle=orthogonalEdgeStyle;rounded=0;orthogonalLoop=1;jettySize=auto;html=1;exitX=0.5;exitY=1;exitDx=0;exitDy=0;endArrow=circle;endFill=0;" parent="1-wsIcYogjCO62ElqLYZ-1" source="1-wsIcYogjCO62ElqLYZ-34" edge="1">
          <mxGeometry relative="1" as="geometry">
            <mxPoint x="324" y="770" as="targetPoint" />
          </mxGeometry>
        </mxCell>
        <mxCell id="Z_M3NOQTqlTmAEms_VVB-0" style="edgeStyle=orthogonalEdgeStyle;rounded=0;orthogonalLoop=1;jettySize=auto;html=1;exitX=0.5;exitY=0;exitDx=0;exitDy=0;endArrow=halfCircle;endFill=0;" parent="1-wsIcYogjCO62ElqLYZ-1" source="1-wsIcYogjCO62ElqLYZ-34" edge="1">
          <mxGeometry relative="1" as="geometry">
            <mxPoint x="324" y="680" as="targetPoint" />
          </mxGeometry>
        </mxCell>
        <mxCell id="1-wsIcYogjCO62ElqLYZ-34" value="" style="rounded=0;whiteSpace=wrap;html=1;" parent="1-wsIcYogjCO62ElqLYZ-1" vertex="1">
          <mxGeometry x="314" y="720" width="20" height="20" as="geometry" />
        </mxCell>
        <mxCell id="1-wsIcYogjCO62ElqLYZ-35" value="CRUD Request" style="text;html=1;strokeColor=none;fillColor=none;align=center;verticalAlign=middle;whiteSpace=wrap;rounded=0;" parent="1-wsIcYogjCO62ElqLYZ-1" vertex="1">
          <mxGeometry x="330" y="750" width="70" height="30" as="geometry" />
        </mxCell>
        <mxCell id="1-wsIcYogjCO62ElqLYZ-36" value="«component»&lt;br&gt;&lt;b&gt;Cache&lt;/b&gt;" style="html=1;dropTarget=0;whiteSpace=wrap;container=0;" parent="1-wsIcYogjCO62ElqLYZ-1" vertex="1">
          <mxGeometry x="350" y="300" width="140" height="50" as="geometry" />
        </mxCell>
        <mxCell id="1-wsIcYogjCO62ElqLYZ-37" style="edgeStyle=orthogonalEdgeStyle;rounded=0;orthogonalLoop=1;jettySize=auto;html=1;exitX=0.5;exitY=0;exitDx=0;exitDy=0;entryX=0.5;entryY=1;entryDx=0;entryDy=0;dashed=1;" parent="1-wsIcYogjCO62ElqLYZ-1" source="1-wsIcYogjCO62ElqLYZ-23" target="1-wsIcYogjCO62ElqLYZ-36" edge="1">
          <mxGeometry relative="1" as="geometry" />
        </mxCell>
        <mxCell id="1-wsIcYogjCO62ElqLYZ-40" style="rounded=0;orthogonalLoop=1;jettySize=auto;html=1;exitX=0.964;exitY=0.02;exitDx=0;exitDy=0;endArrow=classic;endFill=1;dashed=1;exitPerimeter=0;" parent="1-wsIcYogjCO62ElqLYZ-1" edge="1">
          <mxGeometry relative="1" as="geometry">
            <mxPoint x="733" y="480" as="targetPoint" />
            <mxPoint x="733.0299999999997" y="506" as="sourcePoint" />
          </mxGeometry>
        </mxCell>
        <mxCell id="1-wsIcYogjCO62ElqLYZ-41" style="edgeStyle=orthogonalEdgeStyle;rounded=0;orthogonalLoop=1;jettySize=auto;html=1;exitX=0.5;exitY=1;exitDx=0;exitDy=0;endArrow=halfCircle;endFill=0;" parent="1-wsIcYogjCO62ElqLYZ-1" source="1-wsIcYogjCO62ElqLYZ-44" edge="1">
          <mxGeometry relative="1" as="geometry">
            <mxPoint x="759" y="580" as="targetPoint" />
          </mxGeometry>
        </mxCell>
        <mxCell id="1-wsIcYogjCO62ElqLYZ-42" style="edgeStyle=orthogonalEdgeStyle;rounded=0;orthogonalLoop=1;jettySize=auto;html=1;entryX=0;entryY=0.5;entryDx=0;entryDy=0;endArrow=none;endFill=0;startArrow=halfCircle;startFill=0;" parent="1-wsIcYogjCO62ElqLYZ-1" target="1-wsIcYogjCO62ElqLYZ-65" edge="1">
          <mxGeometry relative="1" as="geometry">
            <mxPoint x="929" y="530" as="sourcePoint" />
          </mxGeometry>
        </mxCell>
        <mxCell id="1-wsIcYogjCO62ElqLYZ-43" style="edgeStyle=orthogonalEdgeStyle;rounded=0;orthogonalLoop=1;jettySize=auto;html=1;exitX=1;exitY=0.5;exitDx=0;exitDy=0;endArrow=circle;endFill=0;" parent="1-wsIcYogjCO62ElqLYZ-1" source="1-wsIcYogjCO62ElqLYZ-44" edge="1">
          <mxGeometry relative="1" as="geometry">
            <mxPoint x="930" y="530" as="targetPoint" />
          </mxGeometry>
        </mxCell>
        <mxCell id="Z_M3NOQTqlTmAEms_VVB-9" style="rounded=0;orthogonalLoop=1;jettySize=auto;html=1;exitX=0.75;exitY=0;exitDx=0;exitDy=0;startArrow=none;startFill=0;dashed=1;" parent="1-wsIcYogjCO62ElqLYZ-1" source="1-wsIcYogjCO62ElqLYZ-44" edge="1">
          <mxGeometry relative="1" as="geometry">
            <mxPoint x="850" y="460" as="targetPoint" />
          </mxGeometry>
        </mxCell>
        <mxCell id="1-wsIcYogjCO62ElqLYZ-44" value="&lt;div style=&quot;&quot;&gt;&lt;span style=&quot;background-color: initial;&quot;&gt;«component»&lt;/span&gt;&lt;/div&gt;&lt;b&gt;Client Cache-First Store&lt;/b&gt;" style="html=1;dropTarget=0;whiteSpace=wrap;verticalAlign=top;fillColor=default;" parent="1-wsIcYogjCO62ElqLYZ-1" vertex="1">
          <mxGeometry x="655" y="505" width="207.5" height="50" as="geometry" />
        </mxCell>
        <mxCell id="1-wsIcYogjCO62ElqLYZ-45" value="" style="shape=module;jettyWidth=8;jettyHeight=4;" parent="1-wsIcYogjCO62ElqLYZ-44" vertex="1">
          <mxGeometry x="1" width="20" height="20" relative="1" as="geometry">
            <mxPoint x="-27" y="7" as="offset" />
          </mxGeometry>
        </mxCell>
        <mxCell id="1-wsIcYogjCO62ElqLYZ-46" style="edgeStyle=orthogonalEdgeStyle;rounded=0;orthogonalLoop=1;jettySize=auto;html=1;exitX=0.75;exitY=1;exitDx=0;exitDy=0;endArrow=circle;endFill=0;" parent="1-wsIcYogjCO62ElqLYZ-1" edge="1">
          <mxGeometry relative="1" as="geometry">
            <mxPoint x="733" y="480" as="targetPoint" />
            <mxPoint x="715.5" y="430" as="sourcePoint" />
          </mxGeometry>
        </mxCell>
        <mxCell id="1-wsIcYogjCO62ElqLYZ-47" value="" style="group" parent="1-wsIcYogjCO62ElqLYZ-1" vertex="1" connectable="0">
          <mxGeometry x="663" y="380" width="150" height="60" as="geometry" />
        </mxCell>
        <mxCell id="Z_M3NOQTqlTmAEms_VVB-7" style="edgeStyle=orthogonalEdgeStyle;rounded=0;orthogonalLoop=1;jettySize=auto;html=1;exitX=1;exitY=0.75;exitDx=0;exitDy=0;endArrow=circle;endFill=0;" parent="1-wsIcYogjCO62ElqLYZ-47" source="1-wsIcYogjCO62ElqLYZ-48" edge="1">
          <mxGeometry relative="1" as="geometry">
            <mxPoint x="187" y="80" as="targetPoint" />
          </mxGeometry>
        </mxCell>
        <mxCell id="1-wsIcYogjCO62ElqLYZ-48" value="&lt;div style=&quot;&quot;&gt;&lt;span style=&quot;background-color: initial;&quot;&gt;«component»&lt;/span&gt;&lt;/div&gt;&lt;b&gt;Client Cache&lt;/b&gt;" style="html=1;dropTarget=0;whiteSpace=wrap;verticalAlign=top;" parent="1-wsIcYogjCO62ElqLYZ-47" vertex="1">
          <mxGeometry width="150" height="59.99999999999999" as="geometry" />
        </mxCell>
        <mxCell id="1-wsIcYogjCO62ElqLYZ-49" value="" style="shape=module;jettyWidth=8;jettyHeight=4;" parent="1-wsIcYogjCO62ElqLYZ-48" vertex="1">
          <mxGeometry x="1" width="20" height="20" relative="1" as="geometry">
            <mxPoint x="-27" y="7" as="offset" />
          </mxGeometry>
        </mxCell>
        <mxCell id="1-wsIcYogjCO62ElqLYZ-50" value="Storer CRUD" style="text;html=1;strokeColor=none;fillColor=none;align=center;verticalAlign=middle;whiteSpace=wrap;rounded=0;" parent="1-wsIcYogjCO62ElqLYZ-1" vertex="1">
          <mxGeometry x="738" y="460" width="80" height="30" as="geometry" />
        </mxCell>
        <mxCell id="1-wsIcYogjCO62ElqLYZ-51" value="Storer CRUD" style="text;html=1;strokeColor=none;fillColor=none;align=center;verticalAlign=middle;whiteSpace=wrap;rounded=0;" parent="1-wsIcYogjCO62ElqLYZ-1" vertex="1">
          <mxGeometry x="765" y="560" width="80" height="30" as="geometry" />
        </mxCell>
        <mxCell id="1-wsIcYogjCO62ElqLYZ-52" style="edgeStyle=orthogonalEdgeStyle;rounded=0;orthogonalLoop=1;jettySize=auto;html=1;endArrow=circle;endFill=0;" parent="1-wsIcYogjCO62ElqLYZ-1" source="1-wsIcYogjCO62ElqLYZ-54" edge="1">
          <mxGeometry relative="1" as="geometry">
            <mxPoint x="759.25" y="578" as="targetPoint" />
          </mxGeometry>
        </mxCell>
        <mxCell id="1-wsIcYogjCO62ElqLYZ-53" style="edgeStyle=orthogonalEdgeStyle;rounded=0;orthogonalLoop=1;jettySize=auto;html=1;exitX=0.5;exitY=1;exitDx=0;exitDy=0;endArrow=halfCircle;endFill=0;" parent="1-wsIcYogjCO62ElqLYZ-1" source="1-wsIcYogjCO62ElqLYZ-54" edge="1">
          <mxGeometry relative="1" as="geometry">
            <mxPoint x="759" y="680" as="targetPoint" />
          </mxGeometry>
        </mxCell>
        <mxCell id="1-wsIcYogjCO62ElqLYZ-54" value="&lt;div style=&quot;&quot;&gt;&lt;span style=&quot;background-color: initial;&quot;&gt;«component»&lt;/span&gt;&lt;/div&gt;&lt;b&gt;Requester&lt;/b&gt;" style="html=1;dropTarget=0;whiteSpace=wrap;verticalAlign=top;container=0;" parent="1-wsIcYogjCO62ElqLYZ-1" vertex="1">
          <mxGeometry x="689" y="608" width="140" height="50" as="geometry" />
        </mxCell>
        <mxCell id="1-wsIcYogjCO62ElqLYZ-55" value="CRUD Request" style="text;html=1;strokeColor=none;fillColor=none;align=center;verticalAlign=middle;whiteSpace=wrap;rounded=0;" parent="1-wsIcYogjCO62ElqLYZ-1" vertex="1">
          <mxGeometry x="770" y="660" width="65" height="30" as="geometry" />
        </mxCell>
        <mxCell id="1-wsIcYogjCO62ElqLYZ-56" value="«component»&lt;br&gt;&lt;b&gt;Cache&lt;/b&gt;" style="html=1;dropTarget=0;whiteSpace=wrap;container=0;" parent="1-wsIcYogjCO62ElqLYZ-1" vertex="1">
          <mxGeometry x="663" y="300" width="140" height="50" as="geometry" />
        </mxCell>
        <mxCell id="1-wsIcYogjCO62ElqLYZ-57" style="edgeStyle=orthogonalEdgeStyle;rounded=0;orthogonalLoop=1;jettySize=auto;html=1;exitX=0.5;exitY=0;exitDx=0;exitDy=0;entryX=0.5;entryY=1;entryDx=0;entryDy=0;dashed=1;" parent="1-wsIcYogjCO62ElqLYZ-1" source="1-wsIcYogjCO62ElqLYZ-48" target="1-wsIcYogjCO62ElqLYZ-56" edge="1">
          <mxGeometry relative="1" as="geometry" />
        </mxCell>
        <mxCell id="1-wsIcYogjCO62ElqLYZ-58" value="«component»&lt;br&gt;&lt;b&gt;Local Storage Store&lt;/b&gt;" style="html=1;dropTarget=0;whiteSpace=wrap;container=0;" parent="1-wsIcYogjCO62ElqLYZ-1" vertex="1">
          <mxGeometry x="835" y="300" width="140" height="50" as="geometry" />
        </mxCell>
        <mxCell id="1-wsIcYogjCO62ElqLYZ-59" style="edgeStyle=orthogonalEdgeStyle;rounded=0;orthogonalLoop=1;jettySize=auto;html=1;exitX=1;exitY=0.5;exitDx=0;exitDy=0;entryX=0.5;entryY=1;entryDx=0;entryDy=0;dashed=1;" parent="1-wsIcYogjCO62ElqLYZ-1" source="1-wsIcYogjCO62ElqLYZ-48" target="1-wsIcYogjCO62ElqLYZ-58" edge="1">
          <mxGeometry relative="1" as="geometry" />
        </mxCell>
        <mxCell id="1-wsIcYogjCO62ElqLYZ-60" style="edgeStyle=orthogonalEdgeStyle;rounded=0;orthogonalLoop=1;jettySize=auto;html=1;exitX=1;exitY=0.5;exitDx=0;exitDy=0;endArrow=circle;endFill=0;" parent="1-wsIcYogjCO62ElqLYZ-1" source="1-wsIcYogjCO62ElqLYZ-61" edge="1">
          <mxGeometry relative="1" as="geometry">
            <mxPoint x="769" y="945" as="targetPoint" />
          </mxGeometry>
        </mxCell>
        <mxCell id="1-wsIcYogjCO62ElqLYZ-61" value="&lt;div style=&quot;&quot;&gt;&lt;span style=&quot;background-color: initial;&quot;&gt;«component»&lt;/span&gt;&lt;/div&gt;&lt;b&gt;Client File Manager&lt;/b&gt;" style="html=1;dropTarget=0;whiteSpace=wrap;verticalAlign=top;container=0;" parent="1-wsIcYogjCO62ElqLYZ-1" vertex="1">
          <mxGeometry x="569" y="920" width="140" height="50" as="geometry" />
        </mxCell>
        <mxCell id="1-wsIcYogjCO62ElqLYZ-63" value="File Storer" style="text;html=1;strokeColor=none;fillColor=none;align=center;verticalAlign=middle;whiteSpace=wrap;rounded=0;" parent="1-wsIcYogjCO62ElqLYZ-1" vertex="1">
          <mxGeometry x="719" y="950" width="80" height="30" as="geometry" />
        </mxCell>
        <mxCell id="1-wsIcYogjCO62ElqLYZ-64" style="edgeStyle=orthogonalEdgeStyle;rounded=0;orthogonalLoop=1;jettySize=auto;html=1;exitX=1;exitY=0.5;exitDx=0;exitDy=0;endArrow=circle;endFill=0;" parent="1-wsIcYogjCO62ElqLYZ-1" source="1-wsIcYogjCO62ElqLYZ-65" edge="1">
          <mxGeometry relative="1" as="geometry">
            <mxPoint x="1049" y="530" as="targetPoint" />
          </mxGeometry>
        </mxCell>
        <mxCell id="1-wsIcYogjCO62ElqLYZ-65" value="" style="rounded=0;whiteSpace=wrap;html=1;" parent="1-wsIcYogjCO62ElqLYZ-1" vertex="1">
          <mxGeometry x="999" y="520" width="20" height="20" as="geometry" />
        </mxCell>
        <mxCell id="1-wsIcYogjCO62ElqLYZ-66" value="Storer CRUD" style="text;html=1;strokeColor=none;fillColor=none;align=center;verticalAlign=middle;whiteSpace=wrap;rounded=0;" parent="1-wsIcYogjCO62ElqLYZ-1" vertex="1">
          <mxGeometry x="1009" y="535" width="80" height="30" as="geometry" />
        </mxCell>
        <mxCell id="1-wsIcYogjCO62ElqLYZ-67" value="Storer CRUD" style="text;html=1;strokeColor=none;fillColor=none;align=center;verticalAlign=middle;whiteSpace=wrap;rounded=0;" parent="1-wsIcYogjCO62ElqLYZ-1" vertex="1">
          <mxGeometry x="889" y="540" width="80" height="30" as="geometry" />
        </mxCell>
        <mxCell id="1-wsIcYogjCO62ElqLYZ-71" value="Kysely CRUD" style="text;html=1;strokeColor=none;fillColor=none;align=center;verticalAlign=middle;whiteSpace=wrap;rounded=0;" parent="1-wsIcYogjCO62ElqLYZ-1" vertex="1">
          <mxGeometry x="206" y="340" width="140" height="30" as="geometry" />
        </mxCell>
        <mxCell id="1-wsIcYogjCO62ElqLYZ-72" style="edgeStyle=orthogonalEdgeStyle;rounded=0;orthogonalLoop=1;jettySize=auto;html=1;exitX=0.5;exitY=0;exitDx=0;exitDy=0;entryX=0.5;entryY=1;entryDx=0;entryDy=0;dashed=1;" parent="1-wsIcYogjCO62ElqLYZ-1" source="1-wsIcYogjCO62ElqLYZ-75" target="1-wsIcYogjCO62ElqLYZ-77" edge="1">
          <mxGeometry relative="1" as="geometry" />
        </mxCell>
        <mxCell id="1-wsIcYogjCO62ElqLYZ-73" style="edgeStyle=orthogonalEdgeStyle;rounded=0;orthogonalLoop=1;jettySize=auto;html=1;exitX=1;exitY=0.5;exitDx=0;exitDy=0;endArrow=halfCircle;endFill=0;" parent="1-wsIcYogjCO62ElqLYZ-1" source="1-wsIcYogjCO62ElqLYZ-75" edge="1">
          <mxGeometry relative="1" as="geometry">
            <mxPoint x="1100" y="920" as="targetPoint" />
          </mxGeometry>
        </mxCell>
        <mxCell id="1-wsIcYogjCO62ElqLYZ-74" style="edgeStyle=orthogonalEdgeStyle;rounded=0;orthogonalLoop=1;jettySize=auto;html=1;exitX=0.5;exitY=1;exitDx=0;exitDy=0;endArrow=halfCircle;endFill=0;" parent="1-wsIcYogjCO62ElqLYZ-1" source="1-wsIcYogjCO62ElqLYZ-75" edge="1">
          <mxGeometry relative="1" as="geometry">
            <mxPoint x="985.2631578947371" y="980" as="targetPoint" />
          </mxGeometry>
        </mxCell>
        <mxCell id="1-wsIcYogjCO62ElqLYZ-75" value="«component»&lt;br&gt;&lt;b&gt;Client View&lt;/b&gt;" style="html=1;dropTarget=0;whiteSpace=wrap;" parent="1-wsIcYogjCO62ElqLYZ-1" vertex="1">
          <mxGeometry x="910" y="891" width="150" height="59" as="geometry" />
        </mxCell>
        <mxCell id="1-wsIcYogjCO62ElqLYZ-76" value="" style="shape=module;jettyWidth=8;jettyHeight=4;" parent="1-wsIcYogjCO62ElqLYZ-75" vertex="1">
          <mxGeometry x="1" width="20" height="20" relative="1" as="geometry">
            <mxPoint x="-27" y="7" as="offset" />
          </mxGeometry>
        </mxCell>
        <mxCell id="1-wsIcYogjCO62ElqLYZ-77" value="«component»&lt;br&gt;&lt;b&gt;Local Storage Store&lt;/b&gt;" style="html=1;dropTarget=0;whiteSpace=wrap;container=0;" parent="1-wsIcYogjCO62ElqLYZ-1" vertex="1">
          <mxGeometry x="915" y="800" width="140" height="50" as="geometry" />
        </mxCell>
        <mxCell id="1-wsIcYogjCO62ElqLYZ-78" style="edgeStyle=orthogonalEdgeStyle;rounded=0;orthogonalLoop=1;jettySize=auto;html=1;exitX=1;exitY=0.5;exitDx=0;exitDy=0;endArrow=halfCircle;endFill=0;" parent="1-wsIcYogjCO62ElqLYZ-1" source="1-wsIcYogjCO62ElqLYZ-80" edge="1">
          <mxGeometry relative="1" as="geometry">
            <mxPoint x="749" y="1142" as="targetPoint" />
          </mxGeometry>
        </mxCell>
        <mxCell id="1-wsIcYogjCO62ElqLYZ-79" style="edgeStyle=orthogonalEdgeStyle;rounded=0;orthogonalLoop=1;jettySize=auto;html=1;exitX=0.5;exitY=0;exitDx=0;exitDy=0;endArrow=circle;endFill=0;" parent="1-wsIcYogjCO62ElqLYZ-1" source="1-wsIcYogjCO62ElqLYZ-80" edge="1">
          <mxGeometry relative="1" as="geometry">
            <mxPoint x="619.5263157894738" y="1092" as="targetPoint" />
          </mxGeometry>
        </mxCell>
        <mxCell id="Z_M3NOQTqlTmAEms_VVB-73" style="edgeStyle=orthogonalEdgeStyle;rounded=0;orthogonalLoop=1;jettySize=auto;html=1;exitX=0.5;exitY=1;exitDx=0;exitDy=0;endArrow=halfCircle;endFill=0;" parent="1-wsIcYogjCO62ElqLYZ-1" source="1-wsIcYogjCO62ElqLYZ-80" edge="1">
          <mxGeometry relative="1" as="geometry">
            <mxPoint x="618.9411764705883" y="1190" as="targetPoint" />
          </mxGeometry>
        </mxCell>
        <mxCell id="1-wsIcYogjCO62ElqLYZ-80" value="&lt;div style=&quot;&quot;&gt;&lt;span style=&quot;background-color: initial;&quot;&gt;«component»&lt;/span&gt;&lt;/div&gt;&lt;b&gt;Server Controller&lt;/b&gt;" style="html=1;dropTarget=0;whiteSpace=wrap;verticalAlign=top;container=0;" parent="1-wsIcYogjCO62ElqLYZ-1" vertex="1">
          <mxGeometry x="549" y="1117" width="140" height="50" as="geometry" />
        </mxCell>
        <mxCell id="1-wsIcYogjCO62ElqLYZ-81" value="File Storer" style="text;html=1;strokeColor=none;fillColor=none;align=center;verticalAlign=middle;whiteSpace=wrap;rounded=0;" parent="1-wsIcYogjCO62ElqLYZ-1" vertex="1">
          <mxGeometry x="699" y="1147" width="80" height="30" as="geometry" />
        </mxCell>
        <mxCell id="1-wsIcYogjCO62ElqLYZ-82" value="CRUD Request" style="text;html=1;strokeColor=none;fillColor=none;align=center;verticalAlign=middle;whiteSpace=wrap;rounded=0;" parent="1-wsIcYogjCO62ElqLYZ-1" vertex="1">
          <mxGeometry x="619" y="1082" width="80" height="30" as="geometry" />
        </mxCell>
        <mxCell id="1-wsIcYogjCO62ElqLYZ-83" value="File Storer" style="text;html=1;strokeColor=none;fillColor=none;align=center;verticalAlign=middle;whiteSpace=wrap;rounded=0;" parent="1-wsIcYogjCO62ElqLYZ-1" vertex="1">
          <mxGeometry x="1070" y="930" width="80" height="30" as="geometry" />
        </mxCell>
        <mxCell id="1-wsIcYogjCO62ElqLYZ-84" value="Storer CRUD" style="text;html=1;strokeColor=none;fillColor=none;align=center;verticalAlign=middle;whiteSpace=wrap;rounded=0;" parent="1-wsIcYogjCO62ElqLYZ-1" vertex="1">
          <mxGeometry x="987" y="965" width="65" height="30" as="geometry" />
        </mxCell>
        <mxCell id="Z_M3NOQTqlTmAEms_VVB-1" value="CRUD Request" style="text;html=1;strokeColor=none;fillColor=none;align=center;verticalAlign=middle;whiteSpace=wrap;rounded=0;" parent="1-wsIcYogjCO62ElqLYZ-1" vertex="1">
          <mxGeometry x="324" y="670" width="70" height="30" as="geometry" />
        </mxCell>
        <mxCell id="Z_M3NOQTqlTmAEms_VVB-2" style="edgeStyle=orthogonalEdgeStyle;rounded=0;orthogonalLoop=1;jettySize=auto;html=1;exitX=0.25;exitY=1;exitDx=0;exitDy=0;entryX=0.661;entryY=0.634;entryDx=0;entryDy=0;entryPerimeter=0;endArrow=circle;endFill=0;" parent="1-wsIcYogjCO62ElqLYZ-1" source="1-wsIcYogjCO62ElqLYZ-23" target="1-wsIcYogjCO62ElqLYZ-2" edge="1">
          <mxGeometry relative="1" as="geometry" />
        </mxCell>
        <mxCell id="Z_M3NOQTqlTmAEms_VVB-3" value="IServerCache" style="text;html=1;strokeColor=none;fillColor=none;align=center;verticalAlign=middle;whiteSpace=wrap;rounded=0;" parent="1-wsIcYogjCO62ElqLYZ-1" vertex="1">
          <mxGeometry x="313" y="450" width="80" height="30" as="geometry" />
        </mxCell>
        <mxCell id="Z_M3NOQTqlTmAEms_VVB-8" value="IClientCache" style="text;html=1;strokeColor=none;fillColor=none;align=center;verticalAlign=middle;whiteSpace=wrap;rounded=0;" parent="1-wsIcYogjCO62ElqLYZ-1" vertex="1">
          <mxGeometry x="855.5" y="440" width="80" height="30" as="geometry" />
        </mxCell>
        <mxCell id="Z_M3NOQTqlTmAEms_VVB-13" value="" style="shape=module;jettyWidth=8;jettyHeight=4;" parent="1-wsIcYogjCO62ElqLYZ-1" vertex="1">
          <mxGeometry x="464" y="306" width="20" height="20" as="geometry" />
        </mxCell>
        <mxCell id="Z_M3NOQTqlTmAEms_VVB-14" value="" style="shape=module;jettyWidth=8;jettyHeight=4;" parent="1-wsIcYogjCO62ElqLYZ-1" vertex="1">
          <mxGeometry x="779" y="305" width="20" height="20" as="geometry" />
        </mxCell>
        <mxCell id="Z_M3NOQTqlTmAEms_VVB-15" value="" style="shape=module;jettyWidth=8;jettyHeight=4;" parent="1-wsIcYogjCO62ElqLYZ-1" vertex="1">
          <mxGeometry x="951" y="304" width="20" height="20" as="geometry" />
        </mxCell>
        <mxCell id="Z_M3NOQTqlTmAEms_VVB-16" value="" style="shape=module;jettyWidth=8;jettyHeight=4;" parent="1-wsIcYogjCO62ElqLYZ-1" vertex="1">
          <mxGeometry x="806" y="611" width="20" height="20" as="geometry" />
        </mxCell>
        <mxCell id="Z_M3NOQTqlTmAEms_VVB-17" value="" style="shape=module;jettyWidth=8;jettyHeight=4;" parent="1-wsIcYogjCO62ElqLYZ-1" vertex="1">
          <mxGeometry x="370" y="611" width="20" height="20" as="geometry" />
        </mxCell>
        <mxCell id="Z_M3NOQTqlTmAEms_VVB-18" value="" style="shape=module;jettyWidth=8;jettyHeight=4;" parent="1-wsIcYogjCO62ElqLYZ-1" vertex="1">
          <mxGeometry x="270" y="394" width="20" height="20" as="geometry" />
        </mxCell>
        <mxCell id="Z_M3NOQTqlTmAEms_VVB-19" value="" style="shape=module;jettyWidth=8;jettyHeight=4;" parent="1-wsIcYogjCO62ElqLYZ-1" vertex="1">
          <mxGeometry x="1031" y="803" width="20" height="20" as="geometry" />
        </mxCell>
        <mxCell id="Z_M3NOQTqlTmAEms_VVB-35" style="edgeStyle=orthogonalEdgeStyle;rounded=0;orthogonalLoop=1;jettySize=auto;html=1;exitX=0.5;exitY=1;exitDx=0;exitDy=0;endArrow=halfCircle;endFill=0;" parent="1-wsIcYogjCO62ElqLYZ-1" source="Z_M3NOQTqlTmAEms_VVB-37" edge="1">
          <mxGeometry relative="1" as="geometry">
            <mxPoint x="759" y="770" as="targetPoint" />
          </mxGeometry>
        </mxCell>
        <mxCell id="Z_M3NOQTqlTmAEms_VVB-36" style="edgeStyle=orthogonalEdgeStyle;rounded=0;orthogonalLoop=1;jettySize=auto;html=1;exitX=0.5;exitY=0;exitDx=0;exitDy=0;endArrow=circle;endFill=0;" parent="1-wsIcYogjCO62ElqLYZ-1" source="Z_M3NOQTqlTmAEms_VVB-37" edge="1">
          <mxGeometry relative="1" as="geometry">
            <mxPoint x="759" y="680" as="targetPoint" />
          </mxGeometry>
        </mxCell>
        <mxCell id="Z_M3NOQTqlTmAEms_VVB-37" value="" style="rounded=0;whiteSpace=wrap;html=1;" parent="1-wsIcYogjCO62ElqLYZ-1" vertex="1">
          <mxGeometry x="749" y="720" width="20" height="20" as="geometry" />
        </mxCell>
        <mxCell id="Z_M3NOQTqlTmAEms_VVB-38" value="CRUD Request" style="text;html=1;strokeColor=none;fillColor=none;align=center;verticalAlign=middle;whiteSpace=wrap;rounded=0;" parent="1-wsIcYogjCO62ElqLYZ-1" vertex="1">
          <mxGeometry x="765" y="750" width="70" height="30" as="geometry" />
        </mxCell>
        <mxCell id="Z_M3NOQTqlTmAEms_VVB-39" style="edgeStyle=orthogonalEdgeStyle;rounded=0;orthogonalLoop=1;jettySize=auto;html=1;exitX=0.5;exitY=1;exitDx=0;exitDy=0;endArrow=halfCircle;endFill=0;" parent="1-wsIcYogjCO62ElqLYZ-1" source="Z_M3NOQTqlTmAEms_VVB-40" edge="1">
          <mxGeometry relative="1" as="geometry">
            <mxPoint x="985" y="1102" as="targetPoint" />
          </mxGeometry>
        </mxCell>
        <mxCell id="Z_M3NOQTqlTmAEms_VVB-47" style="edgeStyle=orthogonalEdgeStyle;rounded=0;orthogonalLoop=1;jettySize=auto;html=1;exitX=0.5;exitY=0;exitDx=0;exitDy=0;endArrow=circle;endFill=0;" parent="1-wsIcYogjCO62ElqLYZ-1" source="Z_M3NOQTqlTmAEms_VVB-40" edge="1">
          <mxGeometry relative="1" as="geometry">
            <mxPoint x="985" y="980" as="targetPoint" />
          </mxGeometry>
        </mxCell>
        <mxCell id="Z_M3NOQTqlTmAEms_VVB-40" value="&lt;div style=&quot;&quot;&gt;«subsystem»&lt;br style=&quot;border-color: var(--border-color);&quot;&gt;&lt;b style=&quot;border-color: var(--border-color);&quot;&gt;Client Controller&lt;/b&gt;&lt;/div&gt;" style="html=1;dropTarget=0;whiteSpace=wrap;verticalAlign=top;container=0;" parent="1-wsIcYogjCO62ElqLYZ-1" vertex="1">
          <mxGeometry x="915" y="1030" width="145" height="50" as="geometry" />
        </mxCell>
        <mxCell id="Z_M3NOQTqlTmAEms_VVB-41" value="CRUD Request" style="text;html=1;strokeColor=none;fillColor=none;align=center;verticalAlign=middle;whiteSpace=wrap;rounded=0;" parent="1-wsIcYogjCO62ElqLYZ-1" vertex="1">
          <mxGeometry x="996" y="1082" width="65" height="30" as="geometry" />
        </mxCell>
        <mxCell id="Z_M3NOQTqlTmAEms_VVB-42" value="" style="shape=module;jettyWidth=8;jettyHeight=4;" parent="1-wsIcYogjCO62ElqLYZ-1" vertex="1">
          <mxGeometry x="1032" y="1033" width="20" height="20" as="geometry" />
        </mxCell>
        <mxCell id="Z_M3NOQTqlTmAEms_VVB-43" style="edgeStyle=orthogonalEdgeStyle;rounded=0;orthogonalLoop=1;jettySize=auto;html=1;exitX=0.5;exitY=1;exitDx=0;exitDy=0;endArrow=halfCircle;endFill=0;" parent="1-wsIcYogjCO62ElqLYZ-1" source="Z_M3NOQTqlTmAEms_VVB-45" edge="1">
          <mxGeometry relative="1" as="geometry">
            <mxPoint x="985" y="1192" as="targetPoint" />
          </mxGeometry>
        </mxCell>
        <mxCell id="Z_M3NOQTqlTmAEms_VVB-44" style="edgeStyle=orthogonalEdgeStyle;rounded=0;orthogonalLoop=1;jettySize=auto;html=1;exitX=0.5;exitY=0;exitDx=0;exitDy=0;endArrow=circle;endFill=0;" parent="1-wsIcYogjCO62ElqLYZ-1" source="Z_M3NOQTqlTmAEms_VVB-45" edge="1">
          <mxGeometry relative="1" as="geometry">
            <mxPoint x="985" y="1102" as="targetPoint" />
          </mxGeometry>
        </mxCell>
        <mxCell id="Z_M3NOQTqlTmAEms_VVB-45" value="" style="rounded=0;whiteSpace=wrap;html=1;" parent="1-wsIcYogjCO62ElqLYZ-1" vertex="1">
          <mxGeometry x="975" y="1142" width="20" height="20" as="geometry" />
        </mxCell>
        <mxCell id="Z_M3NOQTqlTmAEms_VVB-46" value="CRUD Request" style="text;html=1;strokeColor=none;fillColor=none;align=center;verticalAlign=middle;whiteSpace=wrap;rounded=0;" parent="1-wsIcYogjCO62ElqLYZ-1" vertex="1">
          <mxGeometry x="991" y="1172" width="70" height="30" as="geometry" />
        </mxCell>
        <mxCell id="Z_M3NOQTqlTmAEms_VVB-50" style="edgeStyle=orthogonalEdgeStyle;rounded=0;orthogonalLoop=1;jettySize=auto;html=1;endArrow=circle;endFill=0;" parent="1-wsIcYogjCO62ElqLYZ-1" source="Z_M3NOQTqlTmAEms_VVB-48" edge="1">
          <mxGeometry relative="1" as="geometry">
            <mxPoint x="1100" y="920.5" as="targetPoint" />
          </mxGeometry>
        </mxCell>
        <mxCell id="Z_M3NOQTqlTmAEms_VVB-48" value="&lt;div style=&quot;&quot;&gt;&lt;span style=&quot;background-color: initial;&quot;&gt;«component»&lt;/span&gt;&lt;/div&gt;&lt;b style=&quot;border-color: var(--border-color);&quot;&gt;Client File Manager&lt;/b&gt;" style="html=1;dropTarget=0;whiteSpace=wrap;verticalAlign=top;container=0;" parent="1-wsIcYogjCO62ElqLYZ-1" vertex="1">
          <mxGeometry x="1150" y="895.5" width="140" height="50" as="geometry" />
        </mxCell>
        <mxCell id="Z_M3NOQTqlTmAEms_VVB-51" value="«subsystem»&lt;br&gt;&lt;b&gt;Server&lt;/b&gt;" style="html=1;dropTarget=0;whiteSpace=wrap;fillColor=none;verticalAlign=top;" parent="1-wsIcYogjCO62ElqLYZ-1" vertex="1">
          <mxGeometry x="30" y="926" width="410" height="304" as="geometry" />
        </mxCell>
        <mxCell id="Z_M3NOQTqlTmAEms_VVB-52" value="" style="shape=module;jettyWidth=8;jettyHeight=4;" parent="Z_M3NOQTqlTmAEms_VVB-51" vertex="1">
          <mxGeometry x="1" width="20" height="20" relative="1" as="geometry">
            <mxPoint x="-35" y="9" as="offset" />
          </mxGeometry>
        </mxCell>
        <mxCell id="Z_M3NOQTqlTmAEms_VVB-55" style="edgeStyle=orthogonalEdgeStyle;rounded=0;orthogonalLoop=1;jettySize=auto;html=1;exitX=0.5;exitY=1;exitDx=0;exitDy=0;endArrow=circle;endFill=0;" parent="1-wsIcYogjCO62ElqLYZ-1" source="Z_M3NOQTqlTmAEms_VVB-56" edge="1">
          <mxGeometry relative="1" as="geometry">
            <mxPoint x="122.2631578947371" y="1059.5" as="targetPoint" />
          </mxGeometry>
        </mxCell>
        <mxCell id="Z_M3NOQTqlTmAEms_VVB-56" value="&lt;div style=&quot;border-color: var(--border-color);&quot;&gt;«subsystem»&lt;br style=&quot;border-color: var(--border-color);&quot;&gt;&lt;b style=&quot;border-color: var(--border-color);&quot;&gt;Server Model&lt;/b&gt;&lt;br&gt;&lt;/div&gt;" style="html=1;dropTarget=0;whiteSpace=wrap;" parent="1-wsIcYogjCO62ElqLYZ-1" vertex="1">
          <mxGeometry x="47" y="970.5" width="150" height="59" as="geometry" />
        </mxCell>
        <mxCell id="Z_M3NOQTqlTmAEms_VVB-57" value="" style="shape=module;jettyWidth=8;jettyHeight=4;" parent="Z_M3NOQTqlTmAEms_VVB-56" vertex="1">
          <mxGeometry x="1" width="20" height="20" relative="1" as="geometry">
            <mxPoint x="-27" y="7" as="offset" />
          </mxGeometry>
        </mxCell>
        <mxCell id="Z_M3NOQTqlTmAEms_VVB-59" value="File Storer" style="text;html=1;strokeColor=none;fillColor=none;align=center;verticalAlign=middle;whiteSpace=wrap;rounded=0;" parent="1-wsIcYogjCO62ElqLYZ-1" vertex="1">
          <mxGeometry x="203" y="1144" width="80" height="30" as="geometry" />
        </mxCell>
        <mxCell id="Z_M3NOQTqlTmAEms_VVB-60" value="CRUD Request" style="text;html=1;strokeColor=none;fillColor=none;align=center;verticalAlign=middle;whiteSpace=wrap;rounded=0;" parent="1-wsIcYogjCO62ElqLYZ-1" vertex="1">
          <mxGeometry x="124" y="1044.5" width="65" height="30" as="geometry" />
        </mxCell>
        <mxCell id="Z_M3NOQTqlTmAEms_VVB-62" style="edgeStyle=orthogonalEdgeStyle;rounded=0;orthogonalLoop=1;jettySize=auto;html=1;exitX=0.5;exitY=1;exitDx=0;exitDy=0;endArrow=circle;endFill=0;" parent="1-wsIcYogjCO62ElqLYZ-1" source="Z_M3NOQTqlTmAEms_VVB-64" edge="1">
          <mxGeometry relative="1" as="geometry">
            <mxPoint x="122" y="1181.5" as="targetPoint" />
          </mxGeometry>
        </mxCell>
        <mxCell id="Z_M3NOQTqlTmAEms_VVB-63" style="edgeStyle=orthogonalEdgeStyle;rounded=0;orthogonalLoop=1;jettySize=auto;html=1;exitX=0.5;exitY=0;exitDx=0;exitDy=0;endArrow=halfCircle;endFill=0;" parent="1-wsIcYogjCO62ElqLYZ-1" source="Z_M3NOQTqlTmAEms_VVB-64" edge="1">
          <mxGeometry relative="1" as="geometry">
            <mxPoint x="122" y="1059.5" as="targetPoint" />
          </mxGeometry>
        </mxCell>
        <mxCell id="Z_M3NOQTqlTmAEms_VVB-77" style="edgeStyle=orthogonalEdgeStyle;rounded=0;orthogonalLoop=1;jettySize=auto;html=1;endArrow=halfCircle;endFill=0;" parent="1-wsIcYogjCO62ElqLYZ-1" source="Z_M3NOQTqlTmAEms_VVB-64" edge="1">
          <mxGeometry relative="1" as="geometry">
            <mxPoint x="237" y="1134.5" as="targetPoint" />
          </mxGeometry>
        </mxCell>
        <mxCell id="Z_M3NOQTqlTmAEms_VVB-64" value="&lt;div style=&quot;&quot;&gt;&lt;div style=&quot;border-color: var(--border-color);&quot;&gt;«component»&lt;/div&gt;&lt;b style=&quot;border-color: var(--border-color);&quot;&gt;Server Controller&lt;/b&gt;&lt;br&gt;&lt;/div&gt;" style="html=1;dropTarget=0;whiteSpace=wrap;verticalAlign=top;container=0;" parent="1-wsIcYogjCO62ElqLYZ-1" vertex="1">
          <mxGeometry x="52" y="1109.5" width="140" height="50" as="geometry" />
        </mxCell>
        <mxCell id="Z_M3NOQTqlTmAEms_VVB-65" value="CRUD Request" style="text;html=1;strokeColor=none;fillColor=none;align=center;verticalAlign=middle;whiteSpace=wrap;rounded=0;" parent="1-wsIcYogjCO62ElqLYZ-1" vertex="1">
          <mxGeometry x="133" y="1161.5" width="65" height="30" as="geometry" />
        </mxCell>
        <mxCell id="Z_M3NOQTqlTmAEms_VVB-66" value="" style="shape=module;jettyWidth=8;jettyHeight=4;" parent="1-wsIcYogjCO62ElqLYZ-1" vertex="1">
          <mxGeometry x="169" y="1112.5" width="20" height="20" as="geometry" />
        </mxCell>
        <mxCell id="Z_M3NOQTqlTmAEms_VVB-67" style="edgeStyle=orthogonalEdgeStyle;rounded=0;orthogonalLoop=1;jettySize=auto;html=1;exitX=0.5;exitY=1;exitDx=0;exitDy=0;endArrow=circle;endFill=0;" parent="1-wsIcYogjCO62ElqLYZ-1" source="Z_M3NOQTqlTmAEms_VVB-69" edge="1">
          <mxGeometry relative="1" as="geometry">
            <mxPoint x="122" y="1271.5" as="targetPoint" />
          </mxGeometry>
        </mxCell>
        <mxCell id="Z_M3NOQTqlTmAEms_VVB-68" style="edgeStyle=orthogonalEdgeStyle;rounded=0;orthogonalLoop=1;jettySize=auto;html=1;exitX=0.5;exitY=0;exitDx=0;exitDy=0;endArrow=halfCircle;endFill=0;" parent="1-wsIcYogjCO62ElqLYZ-1" source="Z_M3NOQTqlTmAEms_VVB-69" edge="1">
          <mxGeometry relative="1" as="geometry">
            <mxPoint x="122" y="1181.5" as="targetPoint" />
          </mxGeometry>
        </mxCell>
        <mxCell id="Z_M3NOQTqlTmAEms_VVB-69" value="" style="rounded=0;whiteSpace=wrap;html=1;" parent="1-wsIcYogjCO62ElqLYZ-1" vertex="1">
          <mxGeometry x="112" y="1221.5" width="20" height="20" as="geometry" />
        </mxCell>
        <mxCell id="Z_M3NOQTqlTmAEms_VVB-70" value="CRUD Request" style="text;html=1;strokeColor=none;fillColor=none;align=center;verticalAlign=middle;whiteSpace=wrap;rounded=0;" parent="1-wsIcYogjCO62ElqLYZ-1" vertex="1">
          <mxGeometry x="128" y="1251.5" width="70" height="30" as="geometry" />
        </mxCell>
        <mxCell id="Z_M3NOQTqlTmAEms_VVB-71" style="edgeStyle=orthogonalEdgeStyle;rounded=0;orthogonalLoop=1;jettySize=auto;html=1;endArrow=circle;endFill=0;" parent="1-wsIcYogjCO62ElqLYZ-1" source="Z_M3NOQTqlTmAEms_VVB-72" edge="1">
          <mxGeometry relative="1" as="geometry">
            <mxPoint x="233" y="1134.5" as="targetPoint" />
          </mxGeometry>
        </mxCell>
        <mxCell id="Z_M3NOQTqlTmAEms_VVB-72" value="&lt;div style=&quot;&quot;&gt;&lt;div style=&quot;border-color: var(--border-color);&quot;&gt;«component»&lt;/div&gt;&lt;b style=&quot;border-color: var(--border-color);&quot;&gt;Server File Manager&lt;/b&gt;&lt;br&gt;&lt;/div&gt;" style="html=1;dropTarget=0;whiteSpace=wrap;verticalAlign=top;container=0;" parent="1-wsIcYogjCO62ElqLYZ-1" vertex="1">
          <mxGeometry x="283" y="1109.5" width="140" height="50" as="geometry" />
        </mxCell>
        <mxCell id="Z_M3NOQTqlTmAEms_VVB-74" value="CRUD Request" style="text;html=1;strokeColor=none;fillColor=none;align=center;verticalAlign=middle;whiteSpace=wrap;rounded=0;" parent="1-wsIcYogjCO62ElqLYZ-1" vertex="1">
          <mxGeometry x="619" y="1172" width="80" height="30" as="geometry" />
        </mxCell>
      </root>
    </mxGraphModel>
  </diagram>
  <diagram id="71vZDqbw3KETk9cZWU8e" name="package">
    <mxGraphModel dx="1366" dy="793" grid="1" gridSize="10" guides="1" tooltips="1" connect="1" arrows="1" fold="1" page="1" pageScale="1" pageWidth="850" pageHeight="1100" math="0" shadow="0">
      <root>
        <mxCell id="0" />
        <mxCell id="1" parent="0" />
        <mxCell id="rCIQ3v1ePQoFVz6yRlJq-6" value="" style="html=1;strokeColor=none;resizeWidth=1;resizeHeight=1;fillColor=none;part=1;connectable=0;allowArrows=0;deletable=0;whiteSpace=wrap;" parent="1" vertex="1">
          <mxGeometry x="70" y="20" width="861.33" height="122.50000000000001" as="geometry">
            <mxPoint x="-10" y="30" as="offset" />
          </mxGeometry>
        </mxCell>
        <mxCell id="sW7SxjykbkariA9gr3g3-2" value="" style="html=1;strokeColor=none;resizeWidth=1;resizeHeight=1;fillColor=none;part=1;connectable=0;allowArrows=0;deletable=0;whiteSpace=wrap;" parent="1" vertex="1">
          <mxGeometry x="40" y="40" width="110" height="50" as="geometry">
            <mxPoint x="-50" y="420" as="offset" />
          </mxGeometry>
        </mxCell>
        <mxCell id="kIlhcJnLY0TKa0y96r7I-6" style="edgeStyle=orthogonalEdgeStyle;rounded=0;orthogonalLoop=1;jettySize=auto;html=1;entryX=0;entryY=0;entryDx=455;entryDy=30;entryPerimeter=0;startArrow=classic;startFill=1;endArrow=none;endFill=0;dashed=1;" parent="1" source="kIlhcJnLY0TKa0y96r7I-5" target="kIlhcJnLY0TKa0y96r7I-2" edge="1">
          <mxGeometry relative="1" as="geometry">
            <mxPoint x="470" y="160" as="targetPoint" />
          </mxGeometry>
        </mxCell>
        <mxCell id="kIlhcJnLY0TKa0y96r7I-5" value="Node Modules" style="shape=folder;fontStyle=1;spacingTop=10;tabWidth=40;tabHeight=14;tabPosition=left;html=1;whiteSpace=wrap;" parent="1" vertex="1">
          <mxGeometry x="448" y="10" width="154" height="110" as="geometry" />
        </mxCell>
        <mxCell id="kIlhcJnLY0TKa0y96r7I-2" value="App" style="shape=folder;fontStyle=1;tabWidth=110;tabHeight=30;tabPosition=left;html=1;boundedLbl=1;labelInHeader=1;container=0;collapsible=0;whiteSpace=wrap;" parent="1" vertex="1">
          <mxGeometry x="70" y="130" width="800" height="760" as="geometry" />
        </mxCell>
        <mxCell id="rCIQ3v1ePQoFVz6yRlJq-14" value="Model" style="shape=folder;fontStyle=1;tabWidth=110;tabHeight=30;tabPosition=left;html=1;boundedLbl=1;labelInHeader=1;container=0;collapsible=0;whiteSpace=wrap;" parent="1" vertex="1">
          <mxGeometry x="250" y="190" width="570" height="340" as="geometry" />
        </mxCell>
        <mxCell id="rCIQ3v1ePQoFVz6yRlJq-5" value="Kysely" style="shape=folder;fontStyle=1;tabWidth=110;tabHeight=30;tabPosition=left;html=1;boundedLbl=1;labelInHeader=1;container=0;collapsible=0;whiteSpace=wrap;" parent="1" vertex="1">
          <mxGeometry x="550" y="261" width="250" height="140" as="geometry" />
        </mxCell>
        <mxCell id="rCIQ3v1ePQoFVz6yRlJq-16" style="rounded=0;orthogonalLoop=1;jettySize=auto;html=1;entryX=0;entryY=0;entryDx=0;entryDy=185;entryPerimeter=0;dashed=1;" parent="1" source="wzuFBDIkSr9iTQQXo1C_-1" target="rCIQ3v1ePQoFVz6yRlJq-14" edge="1">
          <mxGeometry relative="1" as="geometry" />
        </mxCell>
        <mxCell id="bOCcOAz45vQRBtior13T-1" value="Request Eater" style="shape=folder;fontStyle=1;spacingTop=10;tabWidth=40;tabHeight=14;tabPosition=left;html=1;whiteSpace=wrap;container=0;" parent="1" vertex="1">
          <mxGeometry x="280" y="430" width="90" height="70" as="geometry" />
        </mxCell>
        <mxCell id="bOCcOAz45vQRBtior13T-2" value="Server File Manager" style="shape=folder;fontStyle=1;spacingTop=10;tabWidth=40;tabHeight=14;tabPosition=left;html=1;whiteSpace=wrap;container=0;" parent="1" vertex="1">
          <mxGeometry x="280" y="300" width="100" height="70" as="geometry" />
        </mxCell>
        <mxCell id="sKj6ehvTYnyONpwwwp_Y-1" value="&lt;b style=&quot;border-color: var(--border-color);&quot;&gt;Server Cache-First Store&lt;/b&gt;" style="shape=folder;fontStyle=1;spacingTop=10;tabWidth=40;tabHeight=14;tabPosition=left;html=1;whiteSpace=wrap;container=0;" parent="1" vertex="1">
          <mxGeometry x="400" y="430" width="100" height="70" as="geometry" />
        </mxCell>
        <mxCell id="sKj6ehvTYnyONpwwwp_Y-2" style="rounded=0;orthogonalLoop=1;jettySize=auto;html=1;exitX=0;exitY=0;exitDx=90;exitDy=42;exitPerimeter=0;entryX=0;entryY=0;entryDx=0;entryDy=42;entryPerimeter=0;dashed=1;" parent="1" source="bOCcOAz45vQRBtior13T-1" target="sKj6ehvTYnyONpwwwp_Y-1" edge="1">
          <mxGeometry relative="1" as="geometry" />
        </mxCell>
        <mxCell id="VBw2q3RgmrDzTgtmx0YI-2" value="&lt;b style=&quot;border-color: var(--border-color);&quot;&gt;Server Cache&lt;/b&gt;" style="shape=folder;fontStyle=1;spacingTop=10;tabWidth=40;tabHeight=14;tabPosition=left;html=1;whiteSpace=wrap;container=0;" parent="1" vertex="1">
          <mxGeometry x="550" y="430" width="98" height="70" as="geometry" />
        </mxCell>
        <mxCell id="sKj6ehvTYnyONpwwwp_Y-3" style="edgeStyle=orthogonalEdgeStyle;rounded=0;orthogonalLoop=1;jettySize=auto;html=1;exitX=0;exitY=0;exitDx=100;exitDy=42;exitPerimeter=0;dashed=1;entryX=0;entryY=0;entryDx=0;entryDy=42;entryPerimeter=0;" parent="1" source="sKj6ehvTYnyONpwwwp_Y-1" target="VBw2q3RgmrDzTgtmx0YI-2" edge="1">
          <mxGeometry relative="1" as="geometry">
            <mxPoint x="530" y="482" as="targetPoint" />
          </mxGeometry>
        </mxCell>
        <mxCell id="VBw2q3RgmrDzTgtmx0YI-3" value="&lt;b style=&quot;border-color: var(--border-color);&quot;&gt;Cache&lt;/b&gt;" style="shape=folder;fontStyle=1;spacingTop=10;tabWidth=40;tabHeight=14;tabPosition=left;html=1;whiteSpace=wrap;container=0;" parent="1" vertex="1">
          <mxGeometry x="690" y="430" width="98" height="70" as="geometry" />
        </mxCell>
        <mxCell id="VBw2q3RgmrDzTgtmx0YI-4" style="rounded=0;orthogonalLoop=1;jettySize=auto;html=1;exitX=0;exitY=0;exitDx=98;exitDy=42;exitPerimeter=0;entryX=0;entryY=0;entryDx=0;entryDy=42;entryPerimeter=0;dashed=1;" parent="1" source="VBw2q3RgmrDzTgtmx0YI-2" target="VBw2q3RgmrDzTgtmx0YI-3" edge="1">
          <mxGeometry relative="1" as="geometry" />
        </mxCell>
        <mxCell id="rCIQ3v1ePQoFVz6yRlJq-2" value="&lt;b style=&quot;border-color: var(--border-color);&quot;&gt;Kysely Query Builder&lt;/b&gt;" style="shape=folder;fontStyle=1;spacingTop=10;tabWidth=40;tabHeight=14;tabPosition=left;html=1;whiteSpace=wrap;container=0;" parent="1" vertex="1">
          <mxGeometry x="560" y="301" width="98" height="82.5" as="geometry" />
        </mxCell>
        <mxCell id="rCIQ3v1ePQoFVz6yRlJq-3" value="&lt;b style=&quot;border-color: var(--border-color);&quot;&gt;Kysely MySql Dialect&lt;/b&gt;" style="shape=folder;fontStyle=1;spacingTop=10;tabWidth=40;tabHeight=14;tabPosition=left;html=1;whiteSpace=wrap;container=0;" parent="1" vertex="1">
          <mxGeometry x="690" y="301" width="98" height="82.5" as="geometry" />
        </mxCell>
        <mxCell id="rCIQ3v1ePQoFVz6yRlJq-4" style="rounded=0;orthogonalLoop=1;jettySize=auto;html=1;exitX=0;exitY=0;exitDx=98;exitDy=42;exitPerimeter=0;dashed=1;entryX=0;entryY=0;entryDx=0;entryDy=42;entryPerimeter=0;" parent="1" source="rCIQ3v1ePQoFVz6yRlJq-2" target="rCIQ3v1ePQoFVz6yRlJq-3" edge="1">
          <mxGeometry relative="1" as="geometry">
            <mxPoint x="630" y="357.83333333333337" as="targetPoint" />
            <mxPoint x="575" y="394" as="sourcePoint" />
          </mxGeometry>
        </mxCell>
        <mxCell id="sW7SxjykbkariA9gr3g3-1" value="Client Lib" style="shape=folder;fontStyle=1;tabWidth=110;tabHeight=30;tabPosition=left;html=1;boundedLbl=1;labelInHeader=1;container=0;collapsible=0;whiteSpace=wrap;" parent="1" vertex="1">
          <mxGeometry x="240" y="570" width="480" height="290" as="geometry" />
        </mxCell>
        <mxCell id="sW7SxjykbkariA9gr3g3-6" style="rounded=0;orthogonalLoop=1;jettySize=auto;html=1;entryX=0;entryY=0;entryDx=0;entryDy=185;entryPerimeter=0;dashed=1;" parent="1" source="sW7SxjykbkariA9gr3g3-7" target="sW7SxjykbkariA9gr3g3-1" edge="1">
          <mxGeometry relative="1" as="geometry" />
        </mxCell>
        <mxCell id="sW7SxjykbkariA9gr3g3-10" value="&lt;b style=&quot;border-color: var(--border-color);&quot;&gt;Client File Manager&lt;/b&gt;" style="shape=folder;fontStyle=1;spacingTop=10;tabWidth=40;tabHeight=14;tabPosition=left;html=1;whiteSpace=wrap;container=0;" parent="1" vertex="1">
          <mxGeometry x="570" y="630" width="100" height="70" as="geometry" />
        </mxCell>
        <mxCell id="sW7SxjykbkariA9gr3g3-13" value="&lt;b style=&quot;border-color: var(--border-color);&quot;&gt;Client Cache-First Store&lt;/b&gt;" style="shape=folder;fontStyle=1;spacingTop=10;tabWidth=40;tabHeight=14;tabPosition=left;html=1;whiteSpace=wrap;container=0;" parent="1" vertex="1">
          <mxGeometry x="270" y="760" width="100" height="70" as="geometry" />
        </mxCell>
        <mxCell id="sW7SxjykbkariA9gr3g3-15" value="&lt;b style=&quot;border-color: var(--border-color);&quot;&gt;Client Cache&lt;/b&gt;" style="shape=folder;fontStyle=1;spacingTop=10;tabWidth=40;tabHeight=14;tabPosition=left;html=1;whiteSpace=wrap;container=0;" parent="1" vertex="1">
          <mxGeometry x="420" y="760" width="98" height="70" as="geometry" />
        </mxCell>
        <mxCell id="sW7SxjykbkariA9gr3g3-11" style="edgeStyle=orthogonalEdgeStyle;rounded=0;orthogonalLoop=1;jettySize=auto;html=1;exitX=0;exitY=0;exitDx=100;exitDy=42;exitPerimeter=0;dashed=1;entryX=0;entryY=0;entryDx=0;entryDy=42;entryPerimeter=0;" parent="1" source="sW7SxjykbkariA9gr3g3-13" target="sW7SxjykbkariA9gr3g3-15" edge="1">
          <mxGeometry relative="1" as="geometry">
            <mxPoint x="520" y="812" as="targetPoint" />
          </mxGeometry>
        </mxCell>
        <mxCell id="sW7SxjykbkariA9gr3g3-16" value="&lt;b style=&quot;border-color: var(--border-color);&quot;&gt;Cache&lt;/b&gt;" style="shape=folder;fontStyle=1;spacingTop=10;tabWidth=40;tabHeight=14;tabPosition=left;html=1;whiteSpace=wrap;container=0;" parent="1" vertex="1">
          <mxGeometry x="560" y="760" width="98" height="70" as="geometry" />
        </mxCell>
        <mxCell id="sW7SxjykbkariA9gr3g3-14" style="rounded=0;orthogonalLoop=1;jettySize=auto;html=1;exitX=0;exitY=0;exitDx=98;exitDy=42;exitPerimeter=0;entryX=0;entryY=0;entryDx=0;entryDy=42;entryPerimeter=0;dashed=1;" parent="1" source="sW7SxjykbkariA9gr3g3-15" target="sW7SxjykbkariA9gr3g3-16" edge="1">
          <mxGeometry relative="1" as="geometry" />
        </mxCell>
        <mxCell id="sW7SxjykbkariA9gr3g3-5" value="&lt;b style=&quot;border-color: var(--border-color);&quot;&gt;Requester&lt;/b&gt;" style="shape=folder;fontStyle=1;spacingTop=10;tabWidth=40;tabHeight=14;tabPosition=left;html=1;whiteSpace=wrap;container=0;" parent="1" vertex="1">
          <mxGeometry x="289" y="630" width="100" height="70" as="geometry" />
        </mxCell>
        <mxCell id="sW7SxjykbkariA9gr3g3-12" style="rounded=0;orthogonalLoop=1;jettySize=auto;html=1;exitX=0;exitY=0;exitDx=70;exitDy=14;exitPerimeter=0;dashed=1;entryX=0.5;entryY=1;entryDx=0;entryDy=0;entryPerimeter=0;" parent="1" source="sW7SxjykbkariA9gr3g3-13" target="sW7SxjykbkariA9gr3g3-5" edge="1">
          <mxGeometry relative="1" as="geometry">
            <mxPoint x="520" y="730" as="targetPoint" />
          </mxGeometry>
        </mxCell>
        <mxCell id="-K06kuQym8k_EUM0WoK1-1" value="&lt;b style=&quot;border-color: var(--border-color);&quot;&gt;Local Storage Store&lt;/b&gt;" style="shape=folder;fontStyle=1;spacingTop=10;tabWidth=40;tabHeight=14;tabPosition=left;html=1;whiteSpace=wrap;container=0;" parent="1" vertex="1">
          <mxGeometry x="440" y="630" width="100" height="70" as="geometry" />
        </mxCell>
        <mxCell id="-K06kuQym8k_EUM0WoK1-3" style="rounded=0;orthogonalLoop=1;jettySize=auto;html=1;exitX=0;exitY=0;exitDx=69;exitDy=14;exitPerimeter=0;entryX=0.5;entryY=1;entryDx=0;entryDy=0;entryPerimeter=0;dashed=1;" parent="1" source="sW7SxjykbkariA9gr3g3-15" target="-K06kuQym8k_EUM0WoK1-1" edge="1">
          <mxGeometry relative="1" as="geometry" />
        </mxCell>
        <mxCell id="rCIQ3v1ePQoFVz6yRlJq-15" value="" style="html=1;strokeColor=none;resizeWidth=1;resizeHeight=1;fillColor=none;part=1;connectable=0;allowArrows=0;deletable=0;whiteSpace=wrap;container=0;" parent="1" vertex="1">
          <mxGeometry x="50" y="20" width="125" height="78" as="geometry">
            <mxPoint x="-50" y="420" as="offset" />
          </mxGeometry>
        </mxCell>
        <mxCell id="rCIQ3v1ePQoFVz6yRlJq-18" style="rounded=0;orthogonalLoop=1;jettySize=auto;html=1;exitX=0;exitY=0;exitDx=100;exitDy=42;exitPerimeter=0;entryX=0;entryY=0;entryDx=0;entryDy=85;entryPerimeter=0;dashed=1;" parent="1" source="rCIQ3v1ePQoFVz6yRlJq-17" target="rCIQ3v1ePQoFVz6yRlJq-5" edge="1">
          <mxGeometry relative="1" as="geometry" />
        </mxCell>
        <mxCell id="rCIQ3v1ePQoFVz6yRlJq-17" value="&lt;b style=&quot;border-color: var(--border-color);&quot;&gt;Kysely Adapter&lt;/b&gt;" style="shape=folder;fontStyle=1;spacingTop=10;tabWidth=40;tabHeight=14;tabPosition=left;html=1;whiteSpace=wrap;container=0;" parent="1" vertex="1">
          <mxGeometry x="420" y="304.25" width="100" height="70" as="geometry" />
        </mxCell>
        <mxCell id="rCIQ3v1ePQoFVz6yRlJq-1" style="rounded=0;orthogonalLoop=1;jettySize=auto;html=1;exitX=0;exitY=0;exitDx=70;exitDy=14;exitPerimeter=0;dashed=1;entryX=0.5;entryY=1;entryDx=0;entryDy=0;entryPerimeter=0;" parent="1" source="sKj6ehvTYnyONpwwwp_Y-1" target="rCIQ3v1ePQoFVz6yRlJq-17" edge="1">
          <mxGeometry relative="1" as="geometry">
            <mxPoint x="530" y="400" as="targetPoint" />
          </mxGeometry>
        </mxCell>
        <mxCell id="sW7SxjykbkariA9gr3g3-7" value="View" style="shape=folder;fontStyle=1;spacingTop=10;tabWidth=40;tabHeight=14;tabPosition=left;html=1;whiteSpace=wrap;container=0;" parent="1" vertex="1">
          <mxGeometry x="110" y="720" width="90" height="70" as="geometry" />
        </mxCell>
        <mxCell id="kIlhcJnLY0TKa0y96r7I-3" value="" style="html=1;strokeColor=none;resizeWidth=1;resizeHeight=1;fillColor=none;part=1;connectable=0;allowArrows=0;deletable=0;whiteSpace=wrap;container=0;" parent="1" vertex="1">
          <mxGeometry x="70" y="160" width="50" height="30" as="geometry">
            <mxPoint y="30" as="offset" />
          </mxGeometry>
        </mxCell>
        <mxCell id="wzuFBDIkSr9iTQQXo1C_-1" value="Controller" style="shape=folder;fontStyle=1;spacingTop=10;tabWidth=40;tabHeight=14;tabPosition=left;html=1;whiteSpace=wrap;container=0;" parent="1" vertex="1">
          <mxGeometry x="110" y="340" width="90" height="70" as="geometry" />
        </mxCell>
      </root>
    </mxGraphModel>
  </diagram>
  <diagram id="3ucHS5I0lbV0dGZXVr0z" name="usecase">
    <mxGraphModel dx="1434" dy="833" grid="1" gridSize="10" guides="1" tooltips="1" connect="1" arrows="1" fold="1" page="1" pageScale="1" pageWidth="850" pageHeight="1100" math="0" shadow="0">
      <root>
        <mxCell id="0" />
        <mxCell id="1" parent="0" />
        <mxCell id="_54__via0o2Z07l_Cey9-1" value="Membuat sumur baru" style="ellipse;whiteSpace=wrap;html=1;" parent="1" vertex="1">
          <mxGeometry x="430" y="525" width="140" height="70" as="geometry" />
        </mxCell>
        <mxCell id="_54__via0o2Z07l_Cey9-2" value="Menghapus sumur" style="ellipse;whiteSpace=wrap;html=1;" parent="1" vertex="1">
          <mxGeometry x="150" y="470" width="140" height="70" as="geometry" />
        </mxCell>
        <mxCell id="_54__via0o2Z07l_Cey9-3" value="Mengubah data sumur" style="ellipse;whiteSpace=wrap;html=1;" parent="1" vertex="1">
          <mxGeometry x="150" y="400" width="140" height="70" as="geometry" />
        </mxCell>
        <mxCell id="_54__via0o2Z07l_Cey9-36" style="edgeStyle=orthogonalEdgeStyle;rounded=0;orthogonalLoop=1;jettySize=auto;html=1;exitX=0;exitY=0.5;exitDx=0;exitDy=0;endArrow=none;endFill=0;startArrow=classic;startFill=1;dashed=1;" parent="1" source="_54__via0o2Z07l_Cey9-5" edge="1">
          <mxGeometry relative="1" as="geometry">
            <mxPoint x="350" y="449.68421052631584" as="targetPoint" />
          </mxGeometry>
        </mxCell>
        <mxCell id="_54__via0o2Z07l_Cey9-5" value="Mengubah sumur" style="ellipse;whiteSpace=wrap;html=1;" parent="1" vertex="1">
          <mxGeometry x="430" y="415" width="140" height="70" as="geometry" />
        </mxCell>
        <mxCell id="_54__via0o2Z07l_Cey9-6" value="Menghapus data sumur" style="ellipse;whiteSpace=wrap;html=1;" parent="1" vertex="1">
          <mxGeometry x="150" y="330" width="140" height="70" as="geometry" />
        </mxCell>
        <mxCell id="_54__via0o2Z07l_Cey9-7" value="Membuat data sumur baru" style="ellipse;whiteSpace=wrap;html=1;" parent="1" vertex="1">
          <mxGeometry x="150" y="220" width="140" height="70" as="geometry" />
        </mxCell>
        <mxCell id="_54__via0o2Z07l_Cey9-8" value="Melihat sumur" style="ellipse;whiteSpace=wrap;html=1;fillColor=#FFFFFF;fontColor=#333333;strokeColor=#000000;" parent="1" vertex="1">
          <mxGeometry x="430" y="300" width="140" height="70" as="geometry" />
        </mxCell>
        <mxCell id="_54__via0o2Z07l_Cey9-20" style="edgeStyle=orthogonalEdgeStyle;rounded=0;orthogonalLoop=1;jettySize=auto;html=1;exitX=0;exitY=0.5;exitDx=0;exitDy=0;endArrow=none;endFill=0;dashed=1;startArrow=classic;startFill=1;" parent="1" source="_54__via0o2Z07l_Cey9-9" edge="1">
          <mxGeometry relative="1" as="geometry">
            <mxPoint x="370" y="210" as="targetPoint" />
          </mxGeometry>
        </mxCell>
        <mxCell id="_54__via0o2Z07l_Cey9-35" style="edgeStyle=orthogonalEdgeStyle;rounded=0;orthogonalLoop=1;jettySize=auto;html=1;exitX=0.5;exitY=1;exitDx=0;exitDy=0;entryX=0.5;entryY=0;entryDx=0;entryDy=0;dashed=1;" parent="1" source="_54__via0o2Z07l_Cey9-9" target="_54__via0o2Z07l_Cey9-8" edge="1">
          <mxGeometry relative="1" as="geometry" />
        </mxCell>
        <mxCell id="_54__via0o2Z07l_Cey9-9" value="Melihat data sumur" style="ellipse;whiteSpace=wrap;html=1;" parent="1" vertex="1">
          <mxGeometry x="430" y="176" width="140" height="70" as="geometry" />
        </mxCell>
        <mxCell id="_54__via0o2Z07l_Cey9-38" style="rounded=0;orthogonalLoop=1;jettySize=auto;html=1;exitX=0;exitY=0.3333333333333333;exitDx=0;exitDy=0;exitPerimeter=0;entryX=1;entryY=0.5;entryDx=0;entryDy=0;endArrow=none;endFill=0;" parent="1" source="_54__via0o2Z07l_Cey9-10" target="_54__via0o2Z07l_Cey9-9" edge="1">
          <mxGeometry relative="1" as="geometry" />
        </mxCell>
        <mxCell id="_54__via0o2Z07l_Cey9-39" style="rounded=0;orthogonalLoop=1;jettySize=auto;html=1;exitX=0;exitY=0.3333333333333333;exitDx=0;exitDy=0;exitPerimeter=0;entryX=1;entryY=0.5;entryDx=0;entryDy=0;endArrow=none;endFill=0;" parent="1" source="_54__via0o2Z07l_Cey9-10" target="_54__via0o2Z07l_Cey9-8" edge="1">
          <mxGeometry relative="1" as="geometry" />
        </mxCell>
        <mxCell id="_54__via0o2Z07l_Cey9-41" style="rounded=0;orthogonalLoop=1;jettySize=auto;html=1;exitX=0;exitY=0.3333333333333333;exitDx=0;exitDy=0;exitPerimeter=0;entryX=1;entryY=0.5;entryDx=0;entryDy=0;endArrow=none;endFill=0;" parent="1" source="_54__via0o2Z07l_Cey9-10" target="_54__via0o2Z07l_Cey9-5" edge="1">
          <mxGeometry relative="1" as="geometry" />
        </mxCell>
        <mxCell id="_54__via0o2Z07l_Cey9-42" style="rounded=0;orthogonalLoop=1;jettySize=auto;html=1;exitX=0;exitY=0.3333333333333333;exitDx=0;exitDy=0;exitPerimeter=0;entryX=1;entryY=0.5;entryDx=0;entryDy=0;endArrow=none;endFill=0;" parent="1" source="_54__via0o2Z07l_Cey9-10" target="_54__via0o2Z07l_Cey9-1" edge="1">
          <mxGeometry relative="1" as="geometry" />
        </mxCell>
        <mxCell id="_54__via0o2Z07l_Cey9-74" style="rounded=0;orthogonalLoop=1;jettySize=auto;html=1;exitX=0;exitY=0.3333333333333333;exitDx=0;exitDy=0;exitPerimeter=0;entryX=1;entryY=0.5;entryDx=0;entryDy=0;endArrow=none;endFill=0;" parent="1" source="_54__via0o2Z07l_Cey9-10" target="_54__via0o2Z07l_Cey9-71" edge="1">
          <mxGeometry relative="1" as="geometry" />
        </mxCell>
        <mxCell id="_54__via0o2Z07l_Cey9-10" value="User" style="shape=umlActor;verticalLabelPosition=bottom;verticalAlign=top;html=1;outlineConnect=0;" parent="1" vertex="1">
          <mxGeometry x="690" y="340" width="30" height="60" as="geometry" />
        </mxCell>
        <mxCell id="_54__via0o2Z07l_Cey9-16" value="Application" style="swimlane;whiteSpace=wrap;html=1;" parent="1" vertex="1">
          <mxGeometry x="100" y="20" width="520" height="620" as="geometry" />
        </mxCell>
        <mxCell id="_54__via0o2Z07l_Cey9-71" value="Mengubah layout tamplian data sumur" style="ellipse;whiteSpace=wrap;html=1;" parent="_54__via0o2Z07l_Cey9-16" vertex="1">
          <mxGeometry x="330" y="50" width="140" height="70" as="geometry" />
        </mxCell>
        <mxCell id="_54__via0o2Z07l_Cey9-73" value="&amp;lt;&amp;lt;include&amp;gt;&amp;gt;" style="text;html=1;strokeColor=none;fillColor=none;align=center;verticalAlign=middle;whiteSpace=wrap;rounded=0;" parent="_54__via0o2Z07l_Cey9-16" vertex="1">
          <mxGeometry x="414" y="121" width="60" height="30" as="geometry" />
        </mxCell>
        <mxCell id="_54__via0o2Z07l_Cey9-17" value="Upload data sumur" style="ellipse;whiteSpace=wrap;html=1;" parent="1" vertex="1">
          <mxGeometry x="150" y="150" width="140" height="70" as="geometry" />
        </mxCell>
        <mxCell id="_54__via0o2Z07l_Cey9-21" style="rounded=0;orthogonalLoop=1;jettySize=auto;html=1;exitX=1;exitY=0.5;exitDx=0;exitDy=0;endArrow=none;endFill=0;startArrow=none;startFill=0;dashed=1;" parent="1" source="_54__via0o2Z07l_Cey9-18" edge="1">
          <mxGeometry relative="1" as="geometry">
            <mxPoint x="370" y="210" as="targetPoint" />
          </mxGeometry>
        </mxCell>
        <mxCell id="_54__via0o2Z07l_Cey9-18" value="Downlaod data sumur" style="ellipse;whiteSpace=wrap;html=1;" parent="1" vertex="1">
          <mxGeometry x="150" y="80" width="140" height="70" as="geometry" />
        </mxCell>
        <mxCell id="_54__via0o2Z07l_Cey9-24" style="rounded=0;orthogonalLoop=1;jettySize=auto;html=1;exitX=1;exitY=0.5;exitDx=0;exitDy=0;endArrow=none;endFill=0;startArrow=none;startFill=0;dashed=1;" parent="1" source="_54__via0o2Z07l_Cey9-17" edge="1">
          <mxGeometry relative="1" as="geometry">
            <mxPoint x="370" y="210" as="targetPoint" />
            <mxPoint x="220" y="10" as="sourcePoint" />
          </mxGeometry>
        </mxCell>
        <mxCell id="_54__via0o2Z07l_Cey9-25" style="rounded=0;orthogonalLoop=1;jettySize=auto;html=1;exitX=1;exitY=0.5;exitDx=0;exitDy=0;endArrow=none;endFill=0;startArrow=none;startFill=0;dashed=1;" parent="1" source="_54__via0o2Z07l_Cey9-7" edge="1">
          <mxGeometry relative="1" as="geometry">
            <mxPoint x="370" y="210" as="targetPoint" />
            <mxPoint x="230" y="85" as="sourcePoint" />
          </mxGeometry>
        </mxCell>
        <mxCell id="_54__via0o2Z07l_Cey9-26" style="rounded=0;orthogonalLoop=1;jettySize=auto;html=1;exitX=1;exitY=0.5;exitDx=0;exitDy=0;endArrow=none;endFill=0;startArrow=none;startFill=0;dashed=1;" parent="1" source="_54__via0o2Z07l_Cey9-3" edge="1">
          <mxGeometry relative="1" as="geometry">
            <mxPoint x="350" y="450" as="targetPoint" />
            <mxPoint x="230" y="200" as="sourcePoint" />
          </mxGeometry>
        </mxCell>
        <mxCell id="_54__via0o2Z07l_Cey9-27" style="rounded=0;orthogonalLoop=1;jettySize=auto;html=1;exitX=1;exitY=0.5;exitDx=0;exitDy=0;endArrow=none;endFill=0;startArrow=none;startFill=0;dashed=1;" parent="1" source="_54__via0o2Z07l_Cey9-6" edge="1">
          <mxGeometry relative="1" as="geometry">
            <mxPoint x="350" y="450" as="targetPoint" />
            <mxPoint x="230" y="295" as="sourcePoint" />
          </mxGeometry>
        </mxCell>
        <mxCell id="_54__via0o2Z07l_Cey9-30" style="rounded=0;orthogonalLoop=1;jettySize=auto;html=1;exitX=1;exitY=0.5;exitDx=0;exitDy=0;endArrow=none;endFill=0;startArrow=none;startFill=0;dashed=1;" parent="1" source="_54__via0o2Z07l_Cey9-2" edge="1">
          <mxGeometry relative="1" as="geometry">
            <mxPoint x="350" y="450" as="targetPoint" />
            <mxPoint x="230" y="380" as="sourcePoint" />
          </mxGeometry>
        </mxCell>
        <mxCell id="_54__via0o2Z07l_Cey9-32" value="&amp;lt;&amp;lt;include&amp;gt;&amp;gt;" style="text;html=1;strokeColor=none;fillColor=none;align=center;verticalAlign=middle;whiteSpace=wrap;rounded=0;" parent="1" vertex="1">
          <mxGeometry x="510" y="260" width="60" height="30" as="geometry" />
        </mxCell>
        <mxCell id="_54__via0o2Z07l_Cey9-34" value="&amp;lt;&amp;lt;extend&amp;gt;&amp;gt;" style="text;html=1;strokeColor=none;fillColor=none;align=center;verticalAlign=middle;whiteSpace=wrap;rounded=0;" parent="1" vertex="1">
          <mxGeometry x="370" y="180" width="60" height="30" as="geometry" />
        </mxCell>
        <mxCell id="_54__via0o2Z07l_Cey9-37" value="&amp;lt;&amp;lt;extend&amp;gt;&amp;gt;" style="text;html=1;strokeColor=none;fillColor=none;align=center;verticalAlign=middle;whiteSpace=wrap;rounded=0;" parent="1" vertex="1">
          <mxGeometry x="350" y="420" width="60" height="30" as="geometry" />
        </mxCell>
        <mxCell id="_54__via0o2Z07l_Cey9-72" style="edgeStyle=orthogonalEdgeStyle;rounded=0;orthogonalLoop=1;jettySize=auto;html=1;exitX=0.5;exitY=1;exitDx=0;exitDy=0;dashed=1;entryX=0.5;entryY=0;entryDx=0;entryDy=0;" parent="1" source="_54__via0o2Z07l_Cey9-71" target="_54__via0o2Z07l_Cey9-9" edge="1">
          <mxGeometry relative="1" as="geometry">
            <mxPoint x="510" y="256" as="sourcePoint" />
            <mxPoint x="530" y="160" as="targetPoint" />
          </mxGeometry>
        </mxCell>
      </root>
    </mxGraphModel>
  </diagram>
</mxfile>
